<?xml version="1.0" encoding="UTF-8"?>
<svg width="2045px" height="1839px" viewBox="0 0 2045 1839" version="1.1" xmlns="http://www.w3.org/2000/svg" xmlns:xlink="http://www.w3.org/1999/xlink"><script xmlns=""/>
    <title>1-кедровая-исправлена</title>
    <g id="Карты" stroke="none" stroke-width="1" fill="none" fill-rule="evenodd">
        <g id="Красная" transform="translate(-715.000000, -283.000000)">
            <g id="1-кедровая-исправлена" transform="translate(715.000000, 283.000000)">
                <path d="M2038.08072,1838.41175 C2037.14872,1838.41175 2036.20272,1838.21075 2035.30472,1837.78475 C2025.69572,1833.23675 2016.07272,1828.70475 2006.44572,1824.17075 C1927.67572,1787.06975 1846.22372,1748.70675 1771.56072,1700.69675 C1705.80972,1658.41675 1649.06572,1604.88375 1594.19072,1553.11275 C1575.75472,1535.71975 1556.69072,1517.73375 1537.51872,1500.38975 C1473.39472,1442.37975 1389.62172,1412.85975 1315.71072,1386.81475 C1196.09172,1344.66375 1076.37172,1328.44475 949.622719,1311.27375 C922.928719,1307.65675 895.325719,1303.91775 868.043719,1299.95275 C692.245719,1274.39975 549.370719,1242.99275 418.406719,1201.11275 C353.363719,1180.31275 290.335719,1156.47475 231.075719,1130.25975 C181.545719,1108.34975 129.286719,1083.69575 82.674719,1051.93275 L81.776719,1051.31975 C53.569719,1032.10275 18.465719,1008.18575 8.02271904,972.454749 C4.15671904,959.224749 6.77371904,945.794749 14.851719,937.403749 C19.721719,932.345749 25.968719,929.556749 31.993719,927.295749 C62.512719,915.848749 94.882719,915.298749 126.186719,914.766749 C136.588719,914.590749 147.343719,914.407749 157.742719,913.815749 C205.045719,911.122749 254.750719,904.577749 309.697719,893.805749 C316.402719,892.491749 324.173719,891.390749 332.402719,890.224749 C371.934719,884.621749 421.134719,877.649749 426.579719,840.384749 C429.723719,818.861749 425.064719,799.892749 412.731719,784.008749 C388.327719,752.575749 333.042719,731.475749 252.854719,722.992749 C231.468719,720.729749 209.561719,719.744749 188.375719,718.790749 C171.349719,718.024749 153.742719,717.233749 136.397719,715.782749 C134.927719,715.660749 133.295719,715.529749 131.522719,715.387749 C94.426719,712.423749 7.55571904,705.481749 0.467719044,662.718749 C-3.05628096,641.366749 13.346719,622.047749 49.219719,605.294749 C77.136719,592.256749 110.605719,583.337749 132.753719,577.435749 C138.516719,575.900749 143.492719,574.574749 147.068719,573.511749 C185.330719,562.136749 239.102719,538.609749 291.104719,515.857749 C328.860719,499.338749 364.523719,483.735749 392.109719,473.726749 C397.625719,471.724749 404.291719,469.692749 412.011719,467.338749 C447.583719,456.493749 501.339719,440.102749 502.728719,405.944749 C503.030719,398.515749 502.880719,391.304749 502.736719,384.329749 C502.304719,363.505749 501.895719,343.836749 513.025719,321.848749 C523.177719,301.792749 538.197719,285.619749 552.723719,269.980749 C564.213719,257.609749 576.094719,244.817749 585.048719,230.480749 C619.145719,175.892749 650.523719,133.130749 717.165719,120.480749 C773.237719,109.837749 832.006719,109.525749 888.841719,109.223749 C894.889719,109.191749 900.918719,109.159749 906.924719,109.115749 C914.539719,109.060749 924.752719,109.277749 935.563719,109.508749 C957.252719,109.972749 981.833719,110.497749 996.378719,109.142749 C1042.96472,104.803749 1181.08072,74.0497493 1184.52772,73.2807493 L1334.43272,37.3037493 C1339.26172,36.0317493 1429.90872,12.2137493 1464.40372,7.55874928 C1479.18672,5.56474928 1528.25572,0.263749282 1530.33772,0.0387492815 C1533.89472,-0.350250718 1537.11172,2.23374928 1537.49772,5.80374928 C1537.88272,9.37274928 1535.30172,12.5787493 1531.73172,12.9637493 C1531.22472,13.0177493 1480.75372,18.4717493 1466.14272,20.4427493 C1432.24672,25.0157493 1338.61372,49.6447493 1337.67272,49.8927493 L1337.53172,49.9287493 L1187.41772,85.9547493 C1181.63972,87.2467493 1045.34372,117.638749 997.584719,122.086749 C982.299719,123.511749 957.322719,122.976749 935.285719,122.505749 C924.570719,122.276749 914.450719,122.059749 907.019719,122.115749 C901.005719,122.159749 894.967719,122.191749 888.910719,122.223749 C832.660719,122.522749 774.494719,122.831749 719.589719,133.252749 C657.998719,144.943749 629.546719,183.779749 596.075719,237.367749 C586.463719,252.755749 574.153719,266.010749 562.248719,278.827749 C547.695719,294.496749 533.949719,309.297749 524.624719,327.719749 C514.960719,346.811749 515.318719,364.073749 515.733719,384.060749 C515.882719,391.230749 516.035719,398.644749 515.717719,406.472749 C513.954719,449.846749 454.888719,467.856749 415.802719,479.773749 C408.257719,482.074749 401.741719,484.061749 396.543719,485.947749 C369.350719,495.813749 333.874719,511.334749 296.315719,527.767749 C243.951719,550.677749 189.804719,574.368749 150.773719,585.972749 C147.019719,587.088749 141.959719,588.436749 136.100719,589.997749 C114.395719,595.781749 81.595719,604.521749 54.720719,617.072749 C24.772719,631.058749 10.834719,645.702749 13.293719,660.598749 C18.718719,693.331749 104.401719,700.179749 132.558719,702.429749 C134.348719,702.572749 135.996719,702.703749 137.480719,702.828749 C154.576719,704.257749 172.055719,705.043749 188.959719,705.804749 C210.338719,706.765749 232.445719,707.760749 254.223719,710.064749 C288.081719,713.646749 317.971719,719.481749 343.060719,727.406749 C380.146719,739.120749 407.042719,755.481749 422.999719,776.036749 C437.585719,794.822749 443.117719,817.104749 439.442719,842.263749 C432.591719,889.155749 375.738719,897.212749 334.226719,903.095749 C326.172719,904.236749 318.565719,905.314749 312.197719,906.562749 C256.663719,917.449749 206.382719,924.067749 158.480719,926.794749 C147.823719,927.401749 136.936719,927.586749 126.407719,927.765749 C96.206719,928.277749 64.976719,928.807749 36.559719,939.467749 C31.966719,941.190749 27.291719,943.225749 24.216719,946.420749 C19.435719,951.386749 17.977719,960.173749 20.500719,968.807749 C29.636719,1000.06575 62.604719,1022.52775 89.095719,1040.57675 L89.995719,1041.18975 C135.747719,1072.36675 187.367719,1096.70975 236.334719,1118.37075 C295.172719,1144.39875 357.762719,1168.07075 422.366719,1188.72975 C552.630719,1230.38775 694.841719,1261.64075 869.913719,1287.08775 C897.133719,1291.04475 924.704719,1294.77875 951.367719,1298.39075 C1078.79572,1315.65375 1199.15672,1331.95975 1320.03072,1374.55375 C1395.09772,1401.00575 1480.17972,1430.98675 1546.23872,1490.74875 C1565.51372,1508.18475 1584.62772,1526.21775 1603.11172,1543.65675 C1657.55672,1595.02075 1713.85272,1648.13375 1778.59272,1689.76275 C1852.53572,1737.30975 1933.59572,1775.48775 2011.98472,1812.40975 C2021.61872,1816.94675 2031.24972,1821.48275 2040.86672,1826.03475 C2044.11072,1827.56975 2045.49672,1831.44575 2043.96072,1834.69075 C2042.85072,1837.03675 2040.51572,1838.41175 2038.08072,1838.41175" id="Fill-3" fill="#0390D5"/>
                <path d="M918.162819,114.039149 C918.162819,130.607149 904.730819,144.039149 888.162819,144.039149 C871.594819,144.039149 858.162819,130.607149 858.162819,114.039149 C858.162819,97.4711493 871.594819,84.0391493 888.162819,84.0391493 C904.730819,84.0391493 918.162819,97.4711493 918.162819,114.039149" id="Fill-14" fill="#0390D5"/>
                <polygon id="Fill-16" fill="#FFFFFF" points="891.941119 100.434249 891.581119 122.031249 895.541119 121.851249 895.900119 125.631249 882.222119 125.631249 882.222119 121.851249 886.902119 121.851249 887.262119 105.473249 887.082119 105.473249 882.043119 107.813249 880.422119 104.934249 887.982119 99.8942493"/>
                <path d="M1331.61302,1378.39515 C1331.61302,1394.96315 1318.18102,1408.39515 1301.61302,1408.39515 C1285.04402,1408.39515 1271.61302,1394.96315 1271.61302,1378.39515 C1271.61302,1361.82715 1285.04402,1348.39515 1301.61302,1348.39515 C1318.18102,1348.39515 1331.61302,1361.82715 1331.61302,1378.39515" id="Fill-18" fill="#0390D5"/>
                <polygon id="Fill-20" fill="#FFFFFF" points="1305.39132 1364.79065 1305.03232 1386.38865 1308.99132 1386.20865 1309.35132 1389.98765 1295.67232 1389.98765 1295.67232 1386.20865 1300.35232 1386.20865 1300.71232 1369.82965 1300.53232 1369.82965 1295.49332 1372.16965 1293.87232 1369.29065 1301.43232 1364.25065"/>
            </g>
        </g>
    </g>
</svg>