<?xml version="1.0" encoding="UTF-8"?>
<svg width="1403px" height="1633px" viewBox="0 0 1403 1633" version="1.1" xmlns="http://www.w3.org/2000/svg" xmlns:xlink="http://www.w3.org/1999/xlink"><script xmlns=""/>
    <title>2-Скат исправленый</title>
    <g id="Карты" stroke="none" stroke-width="1" fill="none" fill-rule="evenodd">
        <g id="Красная" transform="translate(-1372.000000, -477.000000)">
            <g id="2-Скат-исправленый" transform="translate(1372.013677, 477.033331)">
                <path d="M4.09072452,0.635684205 C7.60657989,-0.972005083 11.7600335,0.574869158 13.3677228,4.09072452 C25.9568416,31.6218658 35.811572,51.3636585 42.8663475,63.2183228 C43.6108594,64.4693817 46.9540245,70.6264677 50.54522,77.2380194 L50.9952412,78.0665084 L52.1249024,80.1457627 C54.7597798,84.9943064 57.3442701,89.7393205 58.9670693,92.6549957 C69.1504463,110.951419 80.22026,129.565607 93.3704905,150.035116 C130.299189,207.517937 176.652263,268.672652 235.015897,333.653322 C264.363022,366.327707 300.934503,399.792863 343.390097,433.753407 C376.941814,460.591673 412.574822,486.505852 450.590116,512.327411 C464.460728,521.748904 477.782636,530.577304 492.619795,540.244688 C494.194544,541.27074 501.108798,545.754673 507.774207,550.084243 L508.641738,550.647798 C513.977143,554.113989 518.994356,557.3787 520.785236,558.562143 C551.860392,579.097118 591.194647,598.760131 657.269882,628.386882 C664.342695,631.558183 700.804728,647.79573 710.850389,652.314823 C731.024364,661.390192 746.676978,668.635372 760.798381,675.505234 C795.968415,692.614958 820.012253,706.701848 835.145412,719.896401 C861.860546,743.18924 883.717748,785.282805 897.973803,837.403828 C911.326803,886.223221 916.888842,940.269483 913.158749,985.444372 C910.773037,1014.33756 905.423041,1039.10475 895.010891,1075.72003 C894.863439,1076.23856 893.004223,1082.71021 891.152633,1089.18278 L890.926062,1089.97494 C889.605989,1094.59117 888.325612,1099.08392 887.711531,1101.28401 C885.095179,1110.65775 883.135535,1118.2308 881.521627,1125.37885 C877.645156,1142.54785 875.90842,1156.89513 876.368108,1170.53526 C876.642282,1178.67074 877.711405,1186.52376 879.643522,1194.2577 C886.753654,1222.71837 904.881511,1253.32899 934.83977,1289.43559 C936.006576,1290.84186 937.170926,1292.23574 938.337116,1293.62186 L939.737701,1295.28179 L941.141702,1296.93605 C962.469944,1321.99184 985.545595,1345.70974 1036.26106,1396.07011 C1086.39424,1445.85228 1207.27737,1520.37543 1398.4118,1619.14009 C1401.84637,1620.91483 1403.19192,1625.1378 1401.41718,1628.57236 C1399.64245,1632.00693 1395.41947,1633.35248 1391.98491,1631.57774 C1199.58234,1532.15779 1077.88572,1457.13314 1026.3964,1406.00432 C970.324068,1350.32459 947.797052,1326.9771 924.065534,1298.37516 C892.886804,1260.7976 873.773512,1228.52299 866.060961,1197.65094 C863.885182,1188.94165 862.682843,1180.11012 862.376051,1171.00681 C861.871237,1156.02767 863.745941,1140.54063 867.865384,1122.2955 C869.538297,1114.88611 871.552885,1107.10073 874.226942,1097.52026 C874.8584,1095.25791 876.178169,1090.62747 877.525911,1085.91485 L877.750681,1085.12905 C877.788148,1084.99809 877.825608,1084.86716 877.863047,1084.73631 L878.08732,1083.95263 C879.803086,1077.95814 881.414781,1072.34784 881.544771,1071.89072 C891.728956,1036.0771 896.911302,1012.08602 899.206231,984.292312 C902.797601,940.797494 897.403605,888.384115 884.469825,841.097414 C870.875281,791.394917 850.218099,751.612404 825.944909,730.448687 C811.99494,718.285754 788.801909,704.697338 754.673867,688.094529 C740.700305,681.296588 725.163881,674.10519 705.10682,665.082416 C700.800051,663.144993 691.605337,659.039219 681.958314,654.735076 L680.609729,654.133409 C679.70931,653.731704 678.806763,653.329075 677.905657,652.927108 L676.555526,652.324852 C665.545577,647.413723 655.019886,642.72093 651.542002,641.16152 C584.786862,611.229914 544.97747,591.329383 513.066804,570.242289 C511.207135,569.013389 505.763338,565.47225 500.130127,561.813215 L499.262443,561.249653 C492.89518,557.11438 486.50841,552.972279 484.977053,551.9745 C470.070333,542.261793 456.676578,533.385779 442.723785,523.908466 C404.428151,497.896489 368.509974,471.77492 334.644984,444.686064 C291.634272,410.281477 254.517341,376.317201 224.600303,343.008288 C165.725885,277.458924 118.919208,215.70576 81.5917047,157.602164 C68.2740913,136.872108 57.0549007,118.006738 46.7341782,99.4635474 C45.220437,96.743816 42.9550679,92.5918416 40.601219,88.2627513 L40.1589974,87.4492777 L39.7156734,86.6334915 C39.4199725,86.0892718 39.1241843,85.544736 38.8296041,85.0023356 L38.3888015,84.1906431 C34.798957,77.5799047 31.4875579,71.4735431 30.8355458,70.3779186 C23.4629125,57.9891341 13.4181474,37.8666486 0.635684205,9.91268245 C-0.972005083,6.39682708 0.574869158,2.24337349 4.09072452,0.635684205 Z" id="Path-8" fill="#000000" fill-rule="nonzero"/>
                <path d="M206.599342,273.361819 C206.599342,289.930819 193.167342,303.361819 176.599342,303.361819 C160.030342,303.361819 146.599342,289.930819 146.599342,273.361819 C146.599342,256.793819 160.030342,243.361819 176.599342,243.361819 C193.167342,243.361819 206.599342,256.793819 206.599342,273.361819" id="Fill-30" fill="#000000"/>
                <path d="M174.058342,280.634719 L174.058342,280.814719 L185.757342,280.634719 L185.217342,284.953719 L168.119342,284.953719 L167.579342,280.634719 C167.579342,280.634719 179.817342,271.815719 179.817342,266.236719 C179.817342,264.256719 178.377342,263.356719 176.578342,263.356719 C172.438342,263.356719 169.558342,266.595719 169.558342,266.595719 L167.219342,263.536719 C167.219342,263.536719 171.358342,259.037719 176.866342,259.037719 C182.337342,259.037719 185.037342,261.916719 185.037342,266.236719 C185.037342,273.435719 174.058342,280.634719 174.058342,280.634719" id="Fill-32" fill="#FFFFFF"/>
                <path d="M1081.59934,1415.36182 C1081.59934,1431.92982 1068.16734,1445.36182 1051.59934,1445.36182 C1035.03134,1445.36182 1021.59934,1431.92982 1021.59934,1415.36182 C1021.59934,1398.79382 1035.03134,1385.36182 1051.59934,1385.36182 C1068.16734,1385.36182 1081.59934,1398.79382 1081.59934,1415.36182" id="Fill-34" fill="#000000"/>
                <path d="M1049.05824,1422.63522 L1049.05824,1422.81522 L1060.75724,1422.63522 L1060.21724,1426.95422 L1043.11924,1426.95422 L1042.57924,1422.63522 C1042.57924,1422.63522 1054.81824,1413.81622 1054.81824,1408.23722 C1054.81824,1406.25722 1053.37724,1405.35722 1051.57824,1405.35722 C1047.43924,1405.35722 1044.55924,1408.59622 1044.55924,1408.59622 L1042.21924,1405.53622 C1042.21924,1405.53622 1046.35924,1401.03722 1051.86624,1401.03722 C1057.33724,1401.03722 1060.03724,1403.91722 1060.03724,1408.23722 C1060.03724,1415.43622 1049.05824,1422.63522 1049.05824,1422.63522" id="Fill-36" fill="#FFFFFF"/>
            </g>
        </g>
    </g>
</svg>