<?xml version="1.0" encoding="UTF-8"?>
<svg width="741px" height="618px" viewBox="0 0 741 618" version="1.1" xmlns="http://www.w3.org/2000/svg" xmlns:xlink="http://www.w3.org/1999/xlink"><script xmlns=""/>
    <title>4-Зубатка</title>
    <g id="Page-1" stroke="none" stroke-width="1" fill="none" fill-rule="evenodd">
        <g id="Красная" transform="translate(-2495.000000, -592.000000)" fill-rule="nonzero">
            <g id="4-Зубатка" transform="translate(2495.559282, 592.344449)">
                <path d="M6.50393776,617.6112 C4.64493776,617.6112 2.79893776,616.8182 1.51293776,615.2802 C-0.789062242,612.5262 -0.423062242,608.4262 2.33093776,606.1242 C133.157938,496.7572 281.440938,372.7982 410.970938,237.4132 C421.013938,226.9162 430.996938,216.2472 440.651938,205.9292 C487.246938,156.1322 531.258938,109.0952 589.592938,71.0651999 C636.352938,40.5791999 665.593938,28.2391999 709.855938,9.55919986 C716.555938,6.73219986 723.625938,3.74819986 731.183938,0.522199861 C734.489938,-0.884800139 738.305938,0.649199861 739.713938,3.94919986 C741.122938,7.25119986 739.588938,11.0701999 736.285938,12.4791999 C728.711938,15.7121999 721.624938,18.7021999 714.909938,21.5361999 C669.740938,40.5981999 642.478938,52.1041999 596.692938,81.9551999 C539.676938,119.1272 496.187938,165.6042 450.144938,214.8112 C440.464938,225.1552 430.456938,235.8512 420.362938,246.4012 C290.332938,382.3082 141.755938,506.5132 10.6689378,616.0982 C9.45293776,617.1152 7.97393776,617.6112 6.50393776,617.6112" id="Fill-12" fill="#000000"/>
                <path d="M572.053838,117.0507 C572.053838,133.6197 558.621838,147.0507 542.053838,147.0507 C525.485838,147.0507 512.053838,133.6197 512.053838,117.0507 C512.053838,100.4827 525.485838,87.0506999 542.053838,87.0506999 C558.621838,87.0506999 572.053838,100.4827 572.053838,117.0507" id="Fill-54" fill="#000000"/>
                <path d="M542.336038,118.9242 L542.156038,109.9252 L541.977038,109.9252 L535.138038,118.7082 L535.138038,118.9242 L542.336038,118.9242 Z M542.517038,128.6432 L542.336038,122.7032 L530.998038,122.5242 L530.314038,118.7802 L541.977038,103.4462 L546.656038,103.4462 L547.016038,118.9242 L549.716038,118.9242 L550.075038,123.0642 L547.016038,122.8832 L547.016038,128.6432 L542.517038,128.6432 Z" id="Fill-56" fill="#FFFFFF"/>
            </g>
        </g>
    </g>
</svg>