<?xml version="1.0" encoding="UTF-8"?>
<svg width="1222px" height="958px" viewBox="0 0 1222 958" version="1.1" xmlns="http://www.w3.org/2000/svg" xmlns:xlink="http://www.w3.org/1999/xlink"><script xmlns=""/>
    <title>5-Таежная</title>
    <g id="Карты" stroke="none" stroke-width="1" fill="none" fill-rule="evenodd">
        <g id="Красная" transform="translate(-2302.000000, -284.000000)">
            <g id="5-Таежная" transform="translate(2302.765750, 284.499518)">
                <path d="M198.950769,956.674932 C195.772769,956.674932 192.994769,954.342932 192.525769,951.106932 C192.010769,947.553932 194.472769,944.255932 198.025769,943.740932 L258.238769,935.009932 C301.642769,928.715932 345.798769,922.508932 388.499769,916.505932 C542.611769,894.840932 701.971769,872.438932 857.190769,841.583932 C906.628769,831.756932 956.489769,819.171932 1004.70877,807.000932 C1014.55477,804.515932 1024.39477,802.031932 1034.23477,799.569932 C1041.24477,797.815932 1051.81677,795.630932 1064.05977,793.100932 C1098.40377,786.002932 1150.30677,775.276932 1166.90577,764.509932 C1185.30177,752.578932 1207.14977,729.131932 1208.18177,702.317932 C1209.03977,680.003932 1193.41877,655.507932 1161.75177,629.512932 C1156.30277,625.039932 1150.68077,620.710932 1144.72777,616.127932 C1115.76777,593.827932 1085.81977,570.769932 1078.26077,532.604932 C1071.32877,497.615932 1074.15777,454.606932 1086.22677,411.497932 C1098.88077,366.297932 1098.67277,336.285932 1060.16677,316.638932 C1035.26877,303.934932 1006.34877,299.048932 978.380769,294.321932 C973.058769,293.422932 967.554769,292.492932 962.216769,291.528932 C938.516769,287.251932 914.633769,280.945932 891.537769,274.847932 C873.614769,270.115932 855.080769,265.221932 836.900769,261.356932 C776.215769,248.453932 715.514769,232.419932 656.811769,216.912932 C573.225769,194.833932 486.793769,172.002932 399.477769,158.007932 C384.711769,155.640932 369.472769,153.976932 354.736769,152.367932 C330.202769,149.689932 304.834769,146.919932 280.283769,140.807932 C239.021769,130.535932 200.318769,112.733932 171.211769,98.3709316 C145.205769,85.5399316 121.204769,72.7439316 97.9927691,60.3699316 C66.9117691,43.7999316 37.5547691,28.1489316 3.75576906,12.3929316 C0.501769057,10.8759316 -0.906230943,7.0089316 0.609769057,3.7559316 C2.12676906,0.500931605 5.99476906,-0.906068395 9.24776906,0.609931605 C43.3627691,16.5129316 72.8697691,32.2439316 104.108769,48.8979316 C127.230769,61.2249316 151.140769,73.9719316 176.963769,86.7129316 C205.487769,100.786932 243.364769,118.220932 283.424769,128.192932 C307.120769,134.091932 332.044769,136.812932 356.147769,139.444932 C371.043769,141.070932 386.446769,142.753932 401.534769,145.171932 C489.488769,159.267932 576.238769,182.183932 660.132769,204.343932 C718.684769,219.810932 779.228769,235.803932 839.603769,248.640932 C858.093769,252.571932 876.782769,257.506932 894.856769,262.278932 C917.706769,268.311932 941.334769,274.549932 964.524769,278.736932 C969.792769,279.686932 975.259769,280.610932 980.546769,281.503932 C1009.48077,286.392932 1039.40077,291.448932 1066.07477,305.058932 C1088.48477,316.493932 1101.31977,332.216932 1105.30977,353.126932 C1109.15277,373.259932 1104.14777,395.703932 1098.74577,415.002932 C1087.21677,456.184932 1084.47077,497.051932 1091.01277,530.078932 C1097.62277,563.449932 1125.60177,584.993932 1152.65977,605.826932 C1158.42877,610.269932 1164.39377,614.862932 1169.99977,619.464932 C1204.97777,648.177932 1222.19477,676.221932 1221.17177,702.817932 C1220.62877,716.925932 1215.30477,731.531932 1205.77477,745.055932 C1197.62677,756.621932 1186.33477,767.403932 1173.97977,775.416932 C1155.32977,787.512932 1104.09877,798.100932 1066.68977,805.831932 C1054.58977,808.332932 1044.13977,810.491932 1037.39177,812.180932 C1027.55977,814.640932 1017.72677,817.122932 1007.89077,819.605932 C959.513769,831.816932 909.488769,844.442932 859.726769,854.334932 C704.144769,885.260932 544.600769,907.689932 390.308769,929.378932 C347.621769,935.379932 303.480769,941.584932 260.103769,947.874932 L199.890769,956.606932 C199.574769,956.652932 199.260769,956.674932 198.950769,956.674932" id="Fill-9" fill="#EC002E"/>
                <path d="M281.847269,125.895632 C281.847269,142.464632 268.415269,155.895632 251.847269,155.895632 C235.279269,155.895632 221.847269,142.464632 221.847269,125.895632 C221.847269,109.327632 235.279269,95.8956316 251.847269,95.8956316 C268.415269,95.8956316 281.847269,109.327632 281.847269,125.895632" id="Fill-50" fill="#EC002E"/>
                <path d="M259.385269,116.610432 L249.090269,116.106432 L248.947269,121.290432 L250.566269,121.290432 C255.066269,121.290432 260.645269,123.305432 260.645269,130.109432 C260.645269,134.716432 256.829269,138.207432 251.250269,138.207432 C246.391269,138.207432 242.107269,135.148432 242.107269,135.148432 L244.087269,131.548432 C244.087269,131.548432 247.147269,134.068432 251.250269,134.068432 C253.986269,134.068432 255.425269,131.944432 255.425269,130.109432 C255.425269,126.509432 252.546269,125.249432 247.687269,125.249432 C245.706269,125.249432 244.627269,125.429432 244.627269,125.429432 L244.807269,112.291432 L259.205269,112.291432 L259.385269,116.610432 Z" id="Fill-52" fill="#FFFFFF"/>
                <path d="M458.847269,914.895632 C458.847269,931.463632 445.415269,944.895632 428.847269,944.895632 C412.279269,944.895632 398.847269,931.463632 398.847269,914.895632 C398.847269,898.327632 412.279269,884.895632 428.847269,884.895632 C445.415269,884.895632 458.847269,898.327632 458.847269,914.895632" id="Fill-58" fill="#EC002E"/>
                <path d="M436.385269,905.610432 L426.090269,905.106432 L425.947269,910.290432 L427.566269,910.290432 C432.066269,910.290432 437.645269,912.305432 437.645269,919.109432 C437.645269,923.716432 433.829269,927.208432 428.250269,927.208432 C423.391269,927.208432 419.107269,924.148432 419.107269,924.148432 L421.087269,920.548432 C421.087269,920.548432 424.147269,923.068432 428.250269,923.068432 C430.986269,923.068432 432.425269,920.944432 432.425269,919.109432 C432.425269,915.509432 429.546269,914.250432 424.687269,914.250432 C422.706269,914.250432 421.627269,914.429432 421.627269,914.429432 L421.807269,901.291432 L436.205269,901.291432 L436.385269,905.610432 Z" id="Fill-60" fill="#FFFFFF"/>
            </g>
        </g>
    </g>
</svg>