<?xml version="1.0" encoding="UTF-8"?>
<svg width="2077px" height="1219px" viewBox="0 0 2077 1219" version="1.1" xmlns="http://www.w3.org/2000/svg" xmlns:xlink="http://www.w3.org/1999/xlink"><script xmlns=""/>
    <title>1-Восток</title>
    <g id="Карты" stroke="none" stroke-width="1" fill="none" fill-rule="evenodd">
        <g id="Юг-Восток" transform="translate(-783.000000, -482.000000)">
            <g id="1-Восток" transform="translate(783.758009, 482.475829)">
                <path d="M325.490639,1185.70394 C303.719639,1183.17194 29.2367155,1145.74551 5.82371552,1143.29251 C2.25371552,1142.91851 -0.337284477,1139.72151 0.035715523,1136.15051 C0.409715523,1132.57951 3.60371552,1129.98051 7.17871552,1130.36351 C30.6647155,1132.82451 305.185639,1170.25394 326.992639,1172.79094 C436.624639,1185.54194 531.305639,1196.55494 649.808639,1175.03694 C779.389639,1151.50794 906.127639,1106.53094 1006.67764,1048.38994 C1062.22964,1016.26894 1113.54564,975.870936 1163.17164,936.802936 L1173.04964,929.029936 C1217.18164,894.329936 1268.99564,866.582936 1319.10364,839.748936 C1342.62064,827.154936 1366.93864,814.131936 1389.69064,800.760936 C1463.42064,757.428936 1537.73264,712.747936 1610.56264,667.954936 C1633.96564,653.560936 1657.47964,638.289936 1680.21864,623.521936 C1711.35464,603.300936 1743.55164,582.389936 1776.08364,563.323936 C1785.90464,557.566936 1795.73464,552.003936 1805.24164,546.623936 C1854.43564,518.782936 1900.90164,492.486936 1936.62464,444.790936 C1965.31464,406.486936 1987.02164,362.681936 2008.01464,320.320936 C2027.09564,281.815936 2043.01064,246.929936 2044.50164,209.885936 C2045.35364,188.700936 2039.11164,168.919936 2032.50264,147.976936 C2030.19664,140.670936 2027.81164,133.114936 2025.77164,125.535936 C2017.85764,96.142936 2009.35664,53.855936 2026.80864,26.091936 C2035.41864,12.394936 2049.35664,3.65493603 2068.23764,0.112936027 C2071.76164,-0.550063973 2075.16264,1.77393603 2075.82464,5.30293603 C2076.48664,8.83193603 2074.16264,12.227936 2070.63364,12.889936 C2055.24664,15.776936 2044.51064,22.357936 2037.81564,33.009936 C2023.07364,56.462936 2031.04564,95.119936 2038.32464,122.156936 C2040.29264,129.466936 2042.63464,136.887936 2044.89964,144.064936 C2051.55364,165.150936 2058.43464,186.954936 2057.49164,210.408936 C2055.89764,250.011936 2039.41664,286.230936 2019.66364,326.092936 C1998.41064,368.979936 1976.43264,413.326936 1947.02964,452.583936 C1909.67364,502.459936 1862.05764,529.407936 1811.64464,557.936936 C1802.17964,563.293936 1792.39364,568.832936 1782.65664,574.538936 C1750.38164,593.454936 1718.31264,614.282936 1687.29864,634.424936 C1664.49364,649.234936 1640.91264,664.550936 1617.37364,679.027936 C1544.46964,723.865936 1470.08164,768.593936 1396.27764,811.967936 C1373.30264,825.469936 1348.86964,838.553936 1325.24064,851.208936 C1275.62664,877.778936 1224.32264,905.252936 1181.08564,939.248936 L1171.21364,947.016936 C1121.22764,986.367936 1069.54064,1027.05794 1013.18464,1059.64394 C911.372639,1118.51494 783.147639,1164.03794 652.130639,1187.82794 C602.561639,1196.82894 557.192639,1200.24094 513.255639,1200.24094 C450.466639,1200.24094 390.594639,1193.27594 325.490639,1185.70394 Z" id="Fill-4" fill="#CD0B0B"/>
                <path d="M478.218039,1188.41574 C478.218039,1204.98374 464.786039,1218.41574 448.218039,1218.41574 C431.649039,1218.41574 418.218039,1204.98374 418.218039,1188.41574 C418.218039,1171.84774 431.649039,1158.41574 448.218039,1158.41574 C464.786039,1158.41574 478.218039,1171.84774 478.218039,1188.41574" id="Fill-32" fill="#CD0B0B"/>
                <path d="M2064.21804,138.415836 C2064.21804,154.983836 2050.78604,168.415836 2034.21804,168.415836 C2017.65004,168.415836 2004.21804,154.983836 2004.21804,138.415836 C2004.21804,121.847836 2017.65004,108.415836 2034.21804,108.415836 C2050.78604,108.415836 2064.21804,121.847836 2064.21804,138.415836" id="Fill-36" fill="#CD0B0B"/>
                <polygon id="Fill-42" fill="#FFFFFF" points="451.760991 1176.06417 451.400991 1197.66217 455.360991 1197.48217 455.720991 1201.26117 442.041991 1201.26117 442.041991 1197.48217 446.721991 1197.48217 447.081991 1181.10317 446.901991 1181.10317 441.862991 1183.44317 440.241991 1180.56417 447.800991 1175.52417"/>
                <polygon id="Fill-42" fill="#FFFFFF" points="2037.52109 125.420414 2037.16109 147.018414 2041.12109 146.838414 2041.48109 150.617414 2027.80209 150.617414 2027.80209 146.838414 2032.48209 146.838414 2032.84209 130.459414 2032.66209 130.459414 2027.62309 132.799414 2026.00209 129.920414 2033.56109 124.880414"/>
            </g>
        </g>
    </g>
</svg>