<?xml version="1.0" encoding="UTF-8"?>
<svg width="1978px" height="1044px" viewBox="0 0 1978 1044" version="1.1" xmlns="http://www.w3.org/2000/svg" xmlns:xlink="http://www.w3.org/1999/xlink"><script xmlns=""/>
    <title>2-Юг</title>
    <g id="Карты" stroke="none" stroke-width="1" fill="none" fill-rule="evenodd">
        <g id="Юг-Восток" transform="translate(-813.000000, -486.000000)">
            <g id="2-Юг" transform="translate(813.802459, 486.548746)">
                <path d="M0.401948131,1039.19851 C-0.838051869,1035.83051 0.886948131,1032.09451 4.25594813,1030.85351 C54.2439481,1012.45151 312.13249,890.82942 362.59549,869.04242 C450.15149,831.24242 515.53249,793.24142 568.35449,749.45042 C609.42949,715.39642 640.37149,670.80342 670.29449,627.67942 C680.19849,613.40642 690.43949,598.64742 700.91949,584.44842 C733.14849,540.78242 770.29949,499.81342 806.22749,460.19342 C813.82249,451.81842 821.67649,443.15842 829.33549,434.63342 C866.04549,393.77942 911.13649,347.78242 967.22749,316.39242 C1003.34949,296.17642 1041.92249,276.54342 1085.14849,256.36842 C1220.28949,193.29342 1364.38249,135.14942 1513.42449,83.5514196 C1689.49849,22.5974196 1834.55149,-3.79958044 1969.89849,0.438419556 C1973.48649,0.551419556 1976.30349,3.55141956 1976.19149,7.13941956 C1976.07749,10.7284196 1973.05749,13.5414196 1969.49049,13.4324196 C1835.76749,9.22641956 1692.20449,35.4174196 1517.67749,95.8374196 C1369.05649,147.28842 1225.38349,205.26142 1090.64649,268.14742 C1047.71149,288.18642 1009.41749,307.67742 973.57549,327.73642 C919.14149,358.19942 875.00249,403.26042 839.00549,443.32342 C831.32549,451.86942 823.46249,460.54042 815.85849,468.92642 C780.14649,508.30742 743.21849,549.02942 711.37849,592.16942 C701.01149,606.21442 690.82549,620.89442 680.97549,635.09042 C650.55349,678.93342 619.09649,724.26942 576.65149,759.45842 C522.85049,804.05942 456.47049,842.67342 367.74849,880.97742 C316.95749,902.90542 58.8999481,1024.59151 8.74694813,1043.05351 C8.00594813,1043.32551 1.36894813,1041.82751 0.401948131,1039.19851 Z" id="Fill-6" fill="#CD0B0B"/>
                <path d="M774.52909,513.64162 C772.50009,513.64162 770.50109,512.69362 769.23309,510.91562 C767.14809,507.99462 767.82609,503.93462 770.74809,501.84962 C886.63809,419.15362 1004.92509,358.37362 1122.32209,321.20162 L1209.08409,293.72762 C1228.19009,287.67762 1247.94509,281.42262 1266.63509,273.61962 C1303.02209,258.42662 1336.46509,236.88862 1366.03509,209.60462 C1395.60509,182.31962 1419.75709,150.71262 1437.82009,115.66362 C1439.46509,112.47262 1443.38509,111.21862 1446.57509,112.86362 C1449.76609,114.50762 1451.02009,118.42662 1449.37609,121.61862 C1430.61409,158.02262 1405.54009,190.83962 1374.85009,219.15862 C1344.16109,247.47662 1309.43709,269.83562 1271.64409,285.61562 C1252.42009,293.64162 1232.38409,299.98562 1213.00809,306.12062 L1126.24709,333.59362 C1010.14809,370.35662 893.08109,430.52662 778.29909,512.43162 C777.15409,513.24762 775.83609,513.64162 774.52909,513.64162" id="Fill-8" fill="#CD0B0B"/>
                <path d="M937.45629,347.90332 C937.05429,347.90332 936.64529,347.86632 936.23529,347.78832 C932.70929,347.11832 930.39329,343.71632 931.06329,340.18932 C938.52029,300.93532 963.94929,263.44132 1000.83029,237.31932 C1031.68829,215.46432 1070.81029,200.68532 1117.10829,193.39632 C1158.00929,186.95732 1199.80029,186.84032 1240.21529,186.72632 L1240.23429,186.72632 C1243.81529,186.72632 1246.72329,189.62532 1246.73332,193.20832 C1246.74429,196.79832 1243.84129,199.71632 1240.25129,199.72632 C1200.32829,199.83832 1159.04429,199.95432 1119.13029,206.23832 C1074.82829,213.21432 1037.55329,227.24032 1008.34329,247.92832 C974.18329,272.12432 950.67029,306.63532 943.83429,342.61532 C943.24229,345.73232 940.51629,347.90332 937.45629,347.90332" id="Fill-10" fill="#CD0B0B"/>
                <path d="M370.02179,878.18562 C368.41379,878.18562 366.80279,877.59262 365.54479,876.39762 C362.94279,873.92462 362.83779,869.81062 365.31079,867.20762 C372.80679,859.31962 380.31679,852.96962 387.57979,846.82862 C394.89779,840.63962 401.81179,834.79362 408.81779,827.41962 C438.21379,796.48462 463.78479,767.41962 479.00079,724.93862 C490.89379,691.73262 497.20879,656.04162 503.31479,621.52662 L503.79979,618.78662 C509.44279,586.91062 515.83879,550.78062 534.60379,520.08962 C561.67779,475.80662 611.69079,456.55962 655.81579,439.57962 L657.50979,438.92662 C706.93679,419.90062 758.27079,405.09362 810.08779,394.91762 C812.47779,394.44862 814.88079,393.98362 817.29079,393.51762 C848.39579,387.50062 880.55979,381.28062 903.24179,361.02362 C905.91979,358.63362 910.02879,358.86662 912.41979,361.54162 C914.81079,364.21962 914.57879,368.32962 911.90079,370.71962 C886.54579,393.36362 852.59379,399.92962 819.75979,406.28062 C817.36179,406.74462 814.97179,407.20662 812.59279,407.67362 C761.51279,417.70562 710.90579,432.30262 662.17979,451.05962 L660.48479,451.71062 C616.22979,468.74362 570.46679,486.35362 545.69379,526.87162 C528.21179,555.46562 522.04279,590.30962 516.60079,621.05162 L516.11579,623.79062 C509.91579,658.83862 503.50379,695.08062 491.23879,729.32162 C475.18879,774.13162 447.55179,805.52962 418.24179,836.37462 C410.74679,844.26362 403.23579,850.61362 395.97379,856.75462 C388.65479,862.94362 381.74179,868.78962 374.73479,876.16362 C373.45679,877.50762 371.74079,878.18562 370.02179,878.18562" id="Fill-12" fill="#CD0B0B"/>
                <path d="M675.83039,634.13282 C674.85339,634.13282 673.86239,633.91182 672.92939,633.44582 C669.71839,631.84182 668.41639,627.93782 670.02039,624.72682 C678.48639,607.78482 680.80239,587.50882 676.37239,569.09482 C673.43139,556.86382 667.80539,545.57382 661.84839,533.62082 C657.93539,525.77082 653.89039,517.65382 650.65639,509.21282 C640.12939,481.73782 642.56739,455.85882 657.17739,439.98582 C659.60839,437.34482 663.72039,437.17282 666.36139,439.60582 C669.00339,442.03582 669.17339,446.14882 666.74239,448.78982 C653.56339,463.10782 656.06239,486.98782 662.79639,504.56282 C665.80539,512.41682 669.70839,520.24782 673.48339,527.82182 C679.50139,539.89982 685.72639,552.38882 689.01239,566.05482 C694.14639,587.39882 691.46239,610.90182 681.64939,630.53682 C680.51139,632.81582 678.21539,634.13282 675.83039,634.13282" id="Fill-14" fill="#CD0B0B"/>
                <path d="M535.17359,630.34282 C535.17359,646.91082 521.74159,660.34282 505.17359,660.34282 C488.60459,660.34282 475.17359,646.91082 475.17359,630.34282 C475.17359,613.77482 488.60459,600.34282 505.17359,600.34282 C521.74159,600.34282 535.17359,613.77482 535.17359,630.34282" id="Fill-20" fill="#CD0B0B"/>
                <path d="M1582.17359,74.3429196 C1582.17359,90.9109196 1568.74159,104.34292 1552.17359,104.34292 C1535.60459,104.34292 1522.17359,90.9109196 1522.17359,74.3429196 C1522.17359,57.7749196 1535.60459,44.3429196 1552.17359,44.3429196 C1568.74159,44.3429196 1582.17359,57.7749196 1582.17359,74.3429196" id="Fill-24" fill="#CD0B0B"/>
                <path d="M502.157241,638.404498 L513.856241,638.224498 L513.316241,642.544498 L496.218241,642.544498 L495.678241,638.224498 C495.678241,638.224498 507.916241,629.406498 507.916241,623.826498 C507.916241,621.847498 506.476241,620.947498 504.677241,620.947498 C500.537241,620.947498 497.657241,624.186498 497.657241,624.186498 L495.318241,621.126498 C495.318241,621.126498 499.457241,616.627498 504.965241,616.627498 C510.436241,616.627498 513.136241,619.507498 513.136241,623.826498 C513.136241,631.025498 502.157241,638.224498 502.157241,638.224498 L502.157241,638.404498 Z" id="Fill-90" fill="#FFFFFF"/>
                <path d="M1549.15724,82.4044978 L1560.85624,82.2244978 L1560.31624,86.5444978 L1543.21824,86.5444978 L1542.67824,82.2244978 C1542.67824,82.2244978 1554.91624,73.4064978 1554.91624,67.8264978 C1554.91624,65.8474978 1553.47624,64.9474978 1551.67724,64.9474978 C1547.53724,64.9474978 1544.65724,68.1864978 1544.65724,68.1864978 L1542.31824,65.1264978 C1542.31824,65.1264978 1546.45724,60.6274978 1551.96524,60.6274978 C1557.43624,60.6274978 1560.13624,63.5074978 1560.13624,67.8264978 C1560.13624,75.0254978 1549.15724,82.2244978 1549.15724,82.2244978 L1549.15724,82.4044978 Z" id="Fill-90" fill="#FFFFFF"/>
            </g>
        </g>
    </g>
</svg>