<?xml version="1.0" encoding="UTF-8"?>
<svg width="1017px" height="1487px" viewBox="0 0 1017 1487" version="1.1" xmlns="http://www.w3.org/2000/svg" xmlns:xlink="http://www.w3.org/1999/xlink"><script xmlns=""/>
    <title>1-Динамо исправлено</title>
    <g id="Карты" stroke="none" stroke-width="1" fill="none" fill-rule="evenodd">
        <g id="Большевик" transform="translate(-654.000000, -537.000000)">
            <g id="1-Динамо-исправлено" transform="translate(653.999736, 537.989651)">
                <path d="M6.50296411,1486.01109 C4.71496411,1486.01109 2.93496411,1485.27809 1.64996411,1483.83809 C-0.740035886,1481.16009 -0.506035886,1477.05109 2.17296411,1474.66109 C7.03996411,1470.31809 489.633964,1039.68009 554.056964,979.796092 C565.361964,969.286092 575.963964,958.792092 581.440964,945.978092 C590.407964,924.999092 584.399964,901.147092 577.780964,884.831092 C550.579964,817.782092 529.539964,793.937092 487.622964,746.429092 C483.226964,741.447092 478.600964,736.203092 473.713964,730.624092 C416.620964,665.450092 358.661964,596.339092 301.445964,525.212092 C290.795964,511.973092 280.057964,498.520092 269.528964,485.228092 C267.299964,482.413092 267.773964,478.325092 270.587964,476.096092 C273.400964,473.867092 277.489964,474.340092 279.718964,477.156092 C290.227964,490.423092 300.945964,503.850092 311.574964,517.064092 C368.677964,588.050092 426.519964,657.020092 483.491964,722.058092 C488.368964,727.624092 492.983964,732.856092 497.370964,737.827092 C540.263964,786.442092 561.793964,810.843092 589.827964,879.945092 C597.374964,898.549092 604.120964,925.993092 593.394964,951.087092 C586.917964,966.242092 575.276964,977.819092 562.906964,989.318092 C498.388964,1049.29109 15.6959641,1480.01709 10.8279641,1484.36109 C9.58896411,1485.46709 8.04296411,1486.01109 6.50296411,1486.01109" id="Fill-7" fill="#EC002E"/>
                <path d="M262.000464,473.511092 C260.324464,473.511092 258.648464,472.866092 257.377464,471.580092 C252.099464,466.240092 246.865464,460.536092 241.803464,455.021092 C218.580464,429.716092 196.645464,405.815092 162.686464,403.513092 C159.105464,403.270092 156.397464,400.170092 156.640464,396.588092 C156.883464,393.008092 159.978464,390.323092 163.565464,390.542092 C202.709464,393.196092 227.452464,420.157092 251.381464,446.232092 C256.363464,451.659092 261.514464,457.273092 266.623464,462.442092 C269.146464,464.994092 269.123464,469.111092 266.569464,471.634092 C265.303464,472.886092 263.651464,473.511092 262.000464,473.511092" id="Fill-26" fill="#EC002E"/>
                <path d="M116.500564,1405.51109 C116.500564,1422.07909 103.069564,1435.51109 86.5005641,1435.51109 C69.9325641,1435.51109 56.5005641,1422.07909 56.5005641,1405.51109 C56.5005641,1388.94309 69.9325641,1375.51109 86.5005641,1375.51109 C103.069564,1375.51109 116.500564,1388.94309 116.500564,1405.51109" id="Fill-84" fill="#EC002E"/>
                <polygon id="Fill-86" fill="#FFFFFF" points="90.2793641 1391.90659 89.9193641 1413.50459 93.8793641 1413.32459 94.2383641 1417.10359 80.5603641 1417.10359 80.5603641 1413.32459 85.2403641 1413.32459 85.6003641 1396.94559 85.4203641 1396.94559 80.3813641 1399.28559 78.7603641 1396.40659 86.3203641 1391.36659"/>
                <path d="M141.911904,385.050306 C141.872858,385.047151 141.830131,385.045716 141.738752,385.04511 L141.559575,385.044711 C145.425568,385.044711 148.559575,388.178718 148.559575,392.044711 C148.559575,395.910705 145.425568,399.044711 141.559575,399.044711 C136.519451,399.044711 116.417322,394.827262 102.955771,389.592809 C92.6877482,385.600144 84.628457,380.808738 79.3514,374.871907 C72.3564323,367.002379 70.6734074,357.412246 75.3946955,347.375354 C77.9856596,341.867275 87.2240976,335.498675 104.752473,325.88387 C119.699189,317.685178 140.553316,307.357309 166.899655,295.047499 C213.695171,273.183212 276.980127,245.448901 353.190372,213.183024 C361.713,209.574716 370.375346,205.919131 379.170398,202.218906 C441.983462,175.7924 509.026041,148.144968 576.585435,120.662615 L585.400155,117.079011 C626.924249,100.20741 680.749966,78.5501043 679.486378,79.1086034 C683.686616,77.252121 687.95753,75.464612 692.295861,73.7444951 C721.681976,62.093114 752.958425,53.9113918 785.103718,48.364978 C796.420036,46.4124375 807.01348,44.9266794 817.691577,43.6859437 C821.518008,43.2413336 832.489862,42.0820061 833.394562,41.9371911 C833.465569,41.9258252 841.23571,40.9168398 849.783991,39.7724915 L850.61344,39.6613545 C850.752009,39.6427709 850.890723,39.6241593 851.029552,39.6055234 L851.863675,39.4934443 C852.42037,39.4185686 852.977981,39.3434189 853.534649,39.2682268 L854.368712,39.1554357 C858.11672,38.6479932 861.77943,38.1438919 864.78525,37.7143437 C885.646756,34.7331202 905.681504,31.4102263 924.47673,27.6257618 C963.797172,19.7084952 992.401655,10.7594018 1004.98858,1.38613361 C1008.08927,-0.922896916 1012.47472,-0.281129667 1014.78375,2.81956088 C1017.09278,5.92025142 1016.45101,10.3056968 1013.35032,12.6147274 C998.504825,23.6699126 968.630603,33.0162523 927.240201,41.3503101 C908.15332,45.1935 887.869282,48.5577405 866.765805,51.5735428 C863.031547,52.1071888 858.354433,52.7469563 853.768132,53.3639351 L852.93549,53.4758333 C843.931026,54.6847211 835.52194,55.7748842 835.607366,55.7612101 C834.853132,55.8819399 830.858573,56.3219261 826.902957,56.7541611 L826.138721,56.8376349 C823.344761,57.1427065 820.676968,57.4332489 819.307428,57.5923819 C808.869971,58.8051567 798.52636,60.2558751 787.484132,62.1611233 C756.223368,67.5549188 725.853088,75.4995929 697.455958,86.7588488 C693.283602,88.4131577 689.179206,90.1309741 685.146108,91.9135811 L685.159926,91.9068301 C685.091829,91.9039736 652.606301,104.969094 619.009416,118.561738 L615.079297,120.15215 C614.205636,120.505779 613.332048,120.859434 612.459081,121.212896 L609.842595,122.27248 C603.308786,124.918893 596.840805,127.542061 590.670088,130.049277 C520.182953,158.688813 450.084448,187.572744 384.599514,215.123351 C375.814047,218.819544 367.161411,222.47103 358.648644,226.075164 C312.248155,245.720193 270.655441,263.678986 234.690912,279.642006 L231.171597,281.205692 C209.581439,290.808597 190.071853,299.673499 172.825922,307.731321 C146.72937,319.924423 126.119641,330.131256 111.485459,338.158514 C103.904066,342.317121 97.9763029,345.864544 93.7981223,348.744811 C91.780093,350.135957 90.21045,351.344678 89.1201855,352.33356 C88.3749412,353.009505 88.0136748,353.439581 88.0631081,353.334492 C85.8006736,358.144156 86.437062,361.770394 89.8152415,365.570938 C93.339137,369.535415 99.6445174,373.284087 108.029517,376.544549 C114.945408,379.233756 122.834524,381.435347 130.915081,383.130657 C133.84816,383.74602 136.624062,384.254329 139.040782,384.638162 C139.955265,384.783403 140.763653,384.901747 141.389979,384.984395 C141.6372,385.017017 141.838522,385.041695 141.973332,385.056439 L141.939161,385.05243 L141.911904,385.050306 Z" id="Path-4" fill="#EC002E" fill-rule="nonzero"/>
                <path d="M854.500964,52.5110922 C854.500964,69.0790922 841.068964,82.5110922 824.500964,82.5110922 C807.932964,82.5110922 794.500964,69.0790922 794.500964,52.5110922 C794.500964,35.9430922 807.932964,22.5110922 824.500964,22.5110922 C841.068964,22.5110922 854.500964,35.9430922 854.500964,52.5110922" id="Fill-40" fill="#EC002E"/>
                <polygon id="Fill-42" fill="#FFFFFF" points="828.279364 38.9065922 827.919364 60.5045922 831.879364 60.3245922 832.239364 64.1035922 818.560364 64.1035922 818.560364 60.3245922 823.240364 60.3245922 823.600364 43.9455922 823.420364 43.9455922 818.381364 46.2855922 816.760364 43.4065922 824.319364 38.3665922"/>
            </g>
        </g>
    </g>
</svg>