<?xml version="1.0" encoding="UTF-8"?>
<svg width="766px" height="713px" viewBox="0 0 766 713" version="1.1" xmlns="http://www.w3.org/2000/svg" xmlns:xlink="http://www.w3.org/1999/xlink"><script xmlns=""/>
    <title>10-Запад верх</title>
    <defs>
        <path d="M30.4713032,712.462924 C30.1244585,708.17488 29.8410822,704.970219 29.6211744,702.848941 C26.5215422,672.94923 19.328815,645.131597 8.36801541,621.473711 L7.55901541,619.736711 C2.90301541,609.762711 -2.37398459,598.456711 1.14901541,586.506711 C4.24801541,575.992711 13.2190154,569.206711 21.3860154,563.671711 C59.0610154,538.132711 99.6860154,516.663711 138.973015,495.900711 L148.705015,490.755711 C180.833015,473.745711 210.642015,448.813711 239.470015,424.703711 C249.821015,416.047711 260.525015,407.095711 271.015015,398.800711 C298.215015,377.291711 326.490015,356.254711 353.833015,335.909711 C380.977015,315.713711 409.044015,294.830711 435.994015,273.533711 C543.590015,188.506711 650.699015,97.0537113 754.344015,1.7157113 C756.988015,-0.714288696 761.099015,-0.542288696 763.529015,2.0997113 C765.958015,4.7407113 765.787015,8.8527113 763.145015,11.2837113 C659.262015,106.840711 551.904015,198.505711 444.054015,283.732711 C416.957015,305.146711 388.812015,326.087711 361.594015,346.339711 C334.326015,366.627711 306.129015,387.606711 279.078015,408.997711 C268.728015,417.182711 258.567015,425.679711 247.810015,434.676711 C218.466015,459.217711 188.124015,484.594711 154.787015,502.243711 L145.047015,507.393711 C106.070015,527.992711 65.7650154,549.292711 28.6800154,574.432711 C22.0910154,578.897711 15.5010154,583.792711 13.6180154,590.182711 C11.4870154,597.414711 15.4780154,605.967711 19.3380154,614.238711 L20.1630154,616.007711 C32.3415118,642.293823 39.8430338,672.722815 42.868238,704.527234 C43.0402585,706.335711 43.2657655,709.05786 43.5447589,712.693681 L30.4713032,712.462924 Z" id="path-1"/>
    </defs>
    <g id="Карты" stroke="none" stroke-width="1" fill="none" fill-rule="evenodd">
        <g id="Большевик" transform="translate(-1765.000000, -207.000000)">
            <g id="10-Запад-верх" transform="translate(1765.756085, 207.001132)">
                <g id="Fill-13">
                    <mask id="mask-2" fill="white">
                        <use xlink:href="#path-1"/>
                    </mask>
                    <use id="Fill-12" fill="#CD0B0B" xlink:href="#path-1"/>
                </g>
                <path d="M529.744615,223.499611 C529.744615,240.067611 516.312615,253.499611 499.744615,253.499611 C483.176615,253.499611 469.744615,240.067611 469.744615,223.499611 C469.744615,206.931611 483.176615,193.499611 499.744615,193.499611 C516.312615,193.499611 529.744615,206.931611 529.744615,223.499611" id="Fill-44" fill="#CD0B0B"/>
                <polygon id="Fill-74" fill="#FFFFFF" points="491.523015 209.895111 491.163015 231.493111 495.123015 231.313111 495.483015 235.092111 481.804015 235.092111 481.804015 231.313111 486.484015 231.313111 486.844015 214.934111 486.664015 214.934111 481.625015 217.274111 480.004015 214.395111 487.563015 209.355111"/>
                <path d="M507.723115,213.494711 C504.483115,213.494711 502.503115,217.453711 502.503115,222.853711 C502.503115,227.892711 504.303115,231.672711 507.723115,231.672711 C510.962115,231.672711 512.762115,227.713711 512.762115,222.492711 C512.762115,217.453711 510.962115,213.494711 507.723115,213.494711 M507.723115,235.810711 C501.063115,235.810711 497.284115,230.232711 497.284115,222.853711 C497.284115,215.113711 501.423115,209.175711 507.723115,209.175711 C514.381115,209.175711 517.981115,215.113711 517.981115,222.492711 C517.981115,229.872711 514.022115,235.810711 507.723115,235.810711" id="Fill-76" fill="#FFFFFF"/>
            </g>
        </g>
    </g>
</svg>