<?xml version="1.0" encoding="UTF-8"?>
<svg width="1010px" height="1056px" viewBox="0 0 1010 1056" version="1.1" xmlns="http://www.w3.org/2000/svg" xmlns:xlink="http://www.w3.org/1999/xlink"><script xmlns=""/>
    <title>2-Запад низ</title>
    <defs>
        <path d="M1.73315621,1053.19479 C-0.706843786,1050.56179 -0.551843786,1046.44979 2.08015621,1044.00779 C123.118156,931.769788 250.435156,822.410788 373.560156,716.651788 C488.675156,617.773788 607.710156,515.527788 721.323156,411.175788 C736.933156,396.838788 752.791156,382.737788 769.580156,367.806788 C836.530156,308.270788 905.759156,246.707788 952.442156,175.141788 C975.859156,139.244788 990.844156,90.7767879 994.638156,38.6667879 C995.216418,30.7255117 995.482793,18.9551119 995.437283,3.35558837 L1008.34091,0 C1008.42521,1.90201196 1008.48013,3.35695262 1008.50569,4.364822 C1010.12004,68.0366462 994.550277,134.386061 963.331156,182.245788 C915.698156,255.265788 845.808156,317.417788 778.218156,377.521788 C761.470156,392.416788 745.650156,406.484788 730.117156,420.750788 C616.345156,525.248788 497.227156,627.565788 382.030156,726.513788 C258.998156,832.192788 131.776156,941.469788 10.9191562,1053.54179 C9.66815621,1054.70179 8.08315621,1055.27479 6.50115621,1055.27479 C4.75515621,1055.27479 3.01415621,1054.57579 1.73315621,1053.19479 Z" id="path-1"/>
    </defs>
    <g id="Карты" stroke="none" stroke-width="1" fill="none" fill-rule="evenodd">
        <g id="Большевик" transform="translate(-801.000000, -931.000000)">
            <g id="2-Запад-низ" transform="translate(801.545944, 931.015056)">
                <g id="Fill-13">
                    <mask id="mask-2" fill="white">
                        <use xlink:href="#path-1"/>
                    </mask>
                    <use id="Fill-12" fill="#429867" xlink:href="#path-1"/>
                </g>
                <path d="M123.954256,970.485688 C123.954256,987.053688 110.523256,1000.48569 93.9542562,1000.48569 C77.3862562,1000.48569 63.9542562,987.053688 63.9542562,970.485688 C63.9542562,953.917688 77.3862562,940.485688 93.9542562,940.485688 C110.523256,940.485688 123.954256,953.917688 123.954256,970.485688" id="Fill-88" fill="#429867"/>
                <path d="M91.4137562,977.758188 L91.4137562,977.938188 L103.112756,977.758188 L102.572756,982.078188 L85.4747562,982.078188 L84.9347562,977.758188 C84.9347562,977.758188 97.1727562,968.940188 97.1727562,963.360188 C97.1727562,961.381188 95.7327562,960.481188 93.9337562,960.481188 C89.7937562,960.481188 86.9137562,963.720188 86.9137562,963.720188 L84.5747562,960.660188 C84.5747562,960.660188 88.7137562,956.161188 94.2217562,956.161188 C99.6927562,956.161188 102.392756,959.041188 102.392756,963.360188 C102.392756,970.559188 91.4137562,977.758188 91.4137562,977.758188" id="Fill-90" fill="#FFFFFF"/>
            </g>
        </g>
    </g>
</svg>