<?xml version="1.0" encoding="UTF-8"?>
<svg width="2778px" height="1793px" viewBox="0 0 2778 1793" version="1.1" xmlns="http://www.w3.org/2000/svg" xmlns:xlink="http://www.w3.org/1999/xlink"><script xmlns=""/>
    <title>3-Юго-западный серпантин</title>
    <g id="Карты" stroke="none" stroke-width="1" fill="none" fill-rule="evenodd">
        <g id="Большевик" transform="translate(-937.000000, -179.000000)">
            <g id="3-Юго-западный-серпантин" transform="translate(937.202009, 179.000000)">
                <path d="M6.49989053,1792.02024 C4.83189053,1792.02024 3.16389053,1791.38124 1.89389053,1790.10624 C-0.63910947,1787.56224 -0.63010947,1783.44724 1.91389053,1780.91424 C72.4148905,1710.72824 147.156891,1647.88424 226.286891,1581.35124 C272.890891,1542.16624 321.081891,1501.64624 369.376891,1458.68824 C443.267891,1392.96124 538.022891,1364.91824 636.769891,1339.74124 C658.529891,1334.19224 680.585891,1329.41624 701.916891,1324.79724 C755.970891,1313.09324 807.026891,1302.03824 856.626891,1279.02424 C858.809891,1278.01124 861.117891,1276.95824 863.522891,1275.86024 C888.987891,1264.24024 927.470891,1246.67924 935.475891,1221.16224 C941.166891,1203.02224 927.458891,1184.27124 921.301891,1177.05124 C917.671891,1172.79424 912.865891,1168.32624 907.778891,1163.59324 C894.017891,1150.79124 878.419891,1136.28224 876.788891,1117.38824 C875.836891,1106.36024 878.679891,1097.08124 885.236891,1089.80524 C901.652891,1071.59524 937.126891,1070.97524 963.027891,1070.52324 C969.311891,1070.41324 974.737891,1070.31824 978.994891,1069.98224 C982.561891,1069.70224 986.622891,1069.46524 990.921891,1069.21624 C1017.04789,1067.69924 1060.77489,1065.16024 1073.84089,1044.97024 C1076.95889,1040.15224 1079.93189,1035.09224 1082.80789,1030.19924 C1091.23689,1015.85624 1099.95389,1001.02424 1113.81289,989.398244 C1131.95789,974.178244 1154.39289,966.021244 1173.94489,960.048244 C1178.63589,958.616244 1184.41389,957.374244 1190.53089,956.057244 C1209.61289,951.954244 1235.74589,946.333244 1240.66389,931.136244 C1242.69089,924.870244 1237.71989,917.452244 1231.89389,912.881244 C1228.81489,910.467244 1225.37489,908.403244 1221.73089,906.218244 C1216.80389,903.263244 1211.70889,900.207244 1207.17389,896.036244 C1201.21389,890.552244 1201.82589,885.439244 1202.72189,882.879244 C1205.67689,874.430244 1219.13789,870.115244 1249.18189,867.985244 C1250.00489,867.926244 1250.62889,867.882244 1251.00689,867.848244 C1270.14589,866.112244 1295.37989,863.761244 1320.84389,860.977244 C1376.03089,854.944244 1420.71589,848.193244 1461.46989,839.731244 C1533.33489,824.809244 1606.05389,808.650244 1676.37789,793.022244 C1824.15189,760.184244 1976.95789,726.228244 2129.64589,702.046244 C2194.66989,691.749244 2264.19089,679.798244 2332.01789,662.245244 C2421.83189,639.001244 2501.34789,605.432244 2568.35589,562.469244 C2643.95189,514.001244 2704.06689,453.189244 2747.03289,381.720244 C2755.04689,368.391244 2763.68289,352.787244 2764.70889,336.279244 C2766.70089,304.259244 2731.07889,285.351244 2702.45489,270.159244 C2697.52589,267.542244 2692.87089,265.072244 2688.56789,262.624244 C2605.36689,215.299244 2519.04589,219.201244 2427.65289,223.337244 C2421.65289,223.609244 2415.63089,223.881244 2409.58489,224.140244 C2276.53089,229.833244 2143.94589,205.892244 2015.71889,182.729244 C1979.35489,176.160244 1934.10089,167.984244 1903.20989,137.955244 C1894.81889,129.796244 1887.92189,120.400244 1881.25089,111.313244 C1874.44389,102.040244 1868.01389,93.2812435 1860.15789,85.7712435 C1820.65489,48.0072435 1741.56189,34.0322435 1678.00989,22.8032435 C1659.19789,19.4802435 1641.42989,16.3402435 1625.87289,12.8422435 C1622.36989,12.0542435 1620.16989,8.57724354 1620.95689,5.07524354 C1621.74389,1.57324354 1625.21589,-0.626756459 1628.72489,0.159243541 C1643.98789,3.59024354 1661.61189,6.70524354 1680.27089,10.0012435 C1745.55089,21.5362435 1826.79289,35.8902435 1869.14189,76.3742435 C1877.81989,84.6702435 1884.89189,94.3042435 1891.72989,103.620244 C1898.37889,112.676244 1904.65789,121.231244 1912.27189,128.633244 C1940.31589,155.897244 1983.40589,163.681244 2018.02889,169.936244 C2145.55789,192.971244 2277.42889,216.798244 2409.02789,211.152244 C2415.06289,210.893244 2421.07589,210.622244 2427.06589,210.350244 C2520.38689,206.131244 2608.52989,202.143244 2694.99589,251.324244 C2699.13289,253.677244 2703.70789,256.105244 2708.55089,258.676244 C2738.78589,274.724244 2780.19589,296.705244 2777.68389,337.085244 C2776.47589,356.518244 2766.97989,373.772244 2758.17589,388.418244 C2714.16989,461.616244 2652.66689,523.857244 2575.37289,573.414244 C2507.20389,617.120244 2426.42289,651.242244 2335.27489,674.831244 C2266.91589,692.522244 2197.02389,704.538244 2131.67889,714.886244 C1979.38789,739.005244 1826.77989,772.917244 1679.19789,805.712244 C1608.82989,821.350244 1536.06589,837.519244 1464.11189,852.459244 C1422.94189,861.007244 1377.86589,867.821244 1322.25589,873.901244 C1296.68789,876.697244 1271.37689,879.054244 1252.18289,880.795244 C1251.75089,880.834244 1251.03989,880.885244 1250.10089,880.952244 C1227.58589,882.548244 1219.26189,885.189244 1216.24189,886.711244 C1219.74789,889.870244 1223.96289,892.397244 1228.41789,895.070244 C1232.24389,897.364244 1236.19989,899.737244 1239.91689,902.653244 C1248.60889,909.471244 1257.26089,922.071244 1253.03289,935.139244 C1245.80789,957.466244 1215.43789,963.999244 1193.26489,968.767244 C1187.42389,970.023244 1181.90689,971.209244 1177.74289,972.482244 C1159.43989,978.072244 1138.52589,985.636244 1122.16789,999.357244 C1110.02489,1009.54224 1102.24889,1022.77624 1094.01589,1036.78624 C1091.06989,1041.79724 1088.02389,1046.97924 1084.75489,1052.03324 C1068.10789,1077.75524 1022.11189,1080.42624 991.675891,1082.19424 C987.444891,1082.44024 983.448891,1082.67124 980.016891,1082.94324 C975.362891,1083.30924 969.752891,1083.40724 963.255891,1083.52124 C941.063891,1083.90924 907.526891,1084.49524 894.893891,1098.51024 C890.787891,1103.06424 889.102891,1108.87424 889.739891,1116.27024 C890.939891,1130.17424 904.002891,1142.32524 916.633891,1154.07524 C922.003891,1159.07024 927.075891,1163.78924 931.192891,1168.61624 C947.172891,1187.35224 953.254891,1207.92224 947.879891,1225.05324 C938.139891,1256.10024 896.483891,1275.10924 868.920891,1287.68724 C866.541891,1288.77224 864.256891,1289.81524 862.097891,1290.81724 C811.188891,1314.43824 757.036891,1326.16424 704.666891,1337.50324 C683.451891,1342.09724 661.512891,1346.84724 639.981891,1352.33724 C542.849891,1377.10324 449.725891,1404.61724 378.016891,1468.40124 C329.586891,1511.48024 281.325891,1552.05824 234.652891,1591.30124 C155.737891,1657.65424 81.1988905,1720.32724 11.0858905,1790.12624 C9.81689053,1791.38924 8.15889053,1792.02024 6.49989053,1792.02024" id="Fill-14" fill="#429867"/>
                <path d="M1236.09949,863.461644 C1235.94849,863.461644 1235.79549,863.456644 1235.64249,863.445644 C1232.06149,863.196644 1229.35949,860.092644 1229.60849,856.511644 C1230.79249,839.437644 1236.46549,822.903644 1246.01149,808.700644 C1248.01249,805.721644 1252.05049,804.928644 1255.03249,806.932644 C1258.01149,808.934644 1258.80349,812.973644 1256.80049,815.952644 C1248.52349,828.269644 1243.60449,842.605644 1242.57749,857.411644 C1242.33849,860.839644 1239.48449,863.461644 1236.09949,863.461644" id="Fill-1" fill="#429867"/>
                <path d="M1826.29869,47.5007435 C1826.29869,64.0687435 1812.86669,77.5007435 1796.29869,77.5007435 C1779.73069,77.5007435 1766.29869,64.0687435 1766.29869,47.5007435 C1766.29869,30.9327435 1779.73069,17.5007435 1796.29869,17.5007435 C1812.86669,17.5007435 1826.29869,30.9327435 1826.29869,47.5007435" id="Fill-36" fill="#429867"/>
                <path d="M1792.49799,43.9743435 C1795.91799,43.9743435 1798.79699,42.3553435 1798.79699,40.1953435 C1798.79699,38.7553435 1798.07699,37.1363435 1795.01799,37.1363435 C1791.77699,37.1363435 1789.43799,39.4393435 1789.43799,39.4393435 L1787.27899,36.4153435 C1787.27899,36.4153435 1789.97799,33.1763435 1795.01799,33.1763435 C1800.95699,33.1763435 1803.65599,36.4153435 1803.65599,39.6563435 C1803.65599,43.8303435 1799.22799,45.2343435 1799.22799,45.2343435 L1799.22799,45.4863435 C1799.22799,45.4863435 1805.09599,46.4943435 1805.09599,51.8943435 C1805.09599,56.0333435 1801.49599,59.8123435 1795.01799,59.8123435 C1789.61799,59.8123435 1786.19899,56.2133435 1786.19899,56.2133435 L1788.53899,52.9743435 C1788.53899,52.9743435 1791.23799,55.6733435 1795.01799,55.6733435 C1798.25799,55.6733435 1800.05699,53.6933435 1800.05699,51.8943435 C1800.05699,49.7343435 1798.25799,47.5743435 1794.54999,47.5743435 L1792.31799,47.5743435 L1792.49799,43.9743435 Z" id="Fill-38" fill="#FFFFFF"/>
                <path d="M133.298191,1694.50074 C133.298191,1711.06874 119.867191,1724.50074 103.298191,1724.50074 C86.7301905,1724.50074 73.2981905,1711.06874 73.2981905,1694.50074 C73.2981905,1677.93274 86.7301905,1664.50074 103.298191,1664.50074 C119.867191,1664.50074 133.298191,1677.93274 133.298191,1694.50074" id="Fill-32" fill="#429867"/>
                <path d="M99.4979905,1690.97434 C102.916991,1690.97434 105.796991,1689.35534 105.796991,1687.19534 C105.796991,1685.75534 105.076991,1684.13634 102.017991,1684.13634 C98.7779905,1684.13634 96.4379905,1686.43934 96.4379905,1686.43934 L94.2789905,1683.41534 C94.2789905,1683.41534 96.9779905,1680.17634 102.017991,1680.17634 C107.956991,1680.17634 110.656991,1683.41534 110.656991,1686.65634 C110.656991,1690.83034 106.228991,1692.23434 106.228991,1692.23434 L106.228991,1692.48634 C106.228991,1692.48634 112.095991,1693.49434 112.095991,1698.89434 C112.095991,1703.03334 108.496991,1706.81234 102.017991,1706.81234 C96.6179905,1706.81234 93.1989905,1703.21334 93.1989905,1703.21334 L95.5389905,1699.97434 C95.5389905,1699.97434 98.2379905,1702.67334 102.017991,1702.67334 C105.256991,1702.67334 107.056991,1700.69334 107.056991,1698.89434 C107.056991,1696.73434 105.256991,1694.57434 101.549991,1694.57434 L99.3179905,1694.57434 L99.4979905,1690.97434 Z" id="Fill-34" fill="#FFFFFF"/>
            </g>
        </g>
    </g>
</svg>