<?xml version="1.0" encoding="UTF-8"?>
<svg width="897px" height="923px" viewBox="0 0 897 923" version="1.1" xmlns="http://www.w3.org/2000/svg" xmlns:xlink="http://www.w3.org/1999/xlink"><script xmlns=""/>
    <title>4-армейка исправлено</title>
    <g id="Карты" stroke="none" stroke-width="1" fill="none" fill-rule="evenodd">
        <g id="Большевик" transform="translate(-1638.000000, -185.000000)">
            <g id="4-армейка-исправлено" transform="translate(1638.858205, 185.863025)">
                <path d="M887.840187,0.252831976 C891.291328,-0.735426842 894.890173,1.2611336 895.878431,4.71227455 C896.86669,8.16341549 894.87013,11.7622601 891.418989,12.7505189 C746.497226,54.2498991 650.2883,81.7815657 602.301264,95.485553 L598.192244,96.6588469 C578.272739,102.345927 567.736171,105.342436 566.540384,105.660397 C451.363702,136.286018 346.419762,170.108391 253.822655,204.594288 C221.369635,216.680751 192.765417,227.993616 168.317995,238.198362 C153.641857,244.324417 139.679324,250.446723 138.634611,250.99564 C107.753373,267.221389 92.2654021,278.484428 82.1342012,293.230999 C71.1367162,309.238499 66.4027951,330.415969 66.4027951,364.637403 C66.4027951,387.446045 69.9719543,401.248385 78.4434412,419.460673 C78.8571026,420.349976 81.6884355,426.347055 82.4977566,428.108467 C87.6652324,439.355 90.2908092,447.62406 91.3036109,458.146057 C92.5338579,470.927094 90.9111771,485.751854 85.9476649,504.51594 C79.3289935,529.537198 69.2183746,550.360383 51.8486471,578.549232 C50.7964334,580.25684 48.5312805,583.887047 46.1966604,587.624505 L45.6571893,588.488073 C42.9588725,592.807169 40.2851756,597.083139 39.392684,598.527272 C34.7527588,606.035093 31.3047275,611.887844 28.2643545,617.517971 C16.6334386,639.055967 11.7228413,656.583887 13.2860467,675.638314 C15.7207816,705.316101 28.2675754,729.865996 52.2973693,759.794531 C53.9474698,761.849691 57.2384562,765.83276 60.550652,769.820572 L61.047438,770.418539 C65.5162992,775.796235 69.8762215,781.007328 70.1421935,781.320116 L70.1484924,781.327675 L70.6514487,781.936656 C77.1712776,789.855017 81.5669445,795.647565 85.1433743,801.252705 C99.2890943,823.422508 103.617557,861.628149 98.7005507,916.220427 C98.3785242,919.795805 95.2190536,922.433168 91.6436756,922.111142 C88.0682975,921.789115 85.4309349,918.629645 85.7529614,915.054266 C90.4333405,863.0892 86.3864958,827.36929 74.1842159,808.245333 C70.8638122,803.041448 66.6045489,797.45129 60.108401,789.584853 L60.1244924,789.605675 L60.1093518,789.587641 C59.9811771,789.436269 59.4012177,788.744236 58.5179908,787.687873 L58.2125535,787.3225 C56.6839537,785.49365 54.4110027,782.769972 52.0147888,779.888871 L51.5174653,779.290777 C51.4343529,779.190801 51.3511447,779.090698 51.2678665,778.990499 L50.7675585,778.388387 C50.6006444,778.187459 50.4336532,777.986386 50.2667889,777.785411 L49.5174427,776.882501 C46.5289814,773.280035 43.6806076,769.826823 42.1604594,767.933514 C30.6104873,753.5483 22.1172066,741.14746 15.3292164,727.865625 C6.91619526,711.404147 1.79681729,694.585954 0.329574667,676.701249 C-1.46860192,654.782681 4.09997065,634.90618 16.8256727,611.340872 C20.0064479,605.450749 23.5724796,599.397702 28.3341158,591.692941 C30.0897947,588.852093 38.4669317,575.485051 40.7810767,571.729489 C57.5399351,544.532003 67.1519816,524.735646 73.3799252,501.191497 C77.9749878,483.8203 79.432818,470.50161 78.3634191,459.391623 C77.5123594,450.549965 75.2978211,443.57544 70.6850173,433.536099 C70.6185887,433.391524 70.5371854,433.215562 70.4435851,433.01406 L70.128971,432.338781 C69.7833214,431.598575 69.3528981,430.681126 68.9126989,429.744282 L68.6186075,429.118578 C67.7369266,427.243238 66.8828066,425.430625 66.656229,424.943521 C57.4394626,405.129007 53.4027951,389.51876 53.4027951,364.637403 C53.4027951,328.025449 58.6817223,304.409863 71.4192595,285.869612 C83.0636296,268.920532 99.9714006,256.624998 132.587944,239.487477 C134.015572,238.737367 146.514517,233.249059 160.496917,227.379302 L161.43117,226.987468 L162.369186,226.59479 C162.682416,226.463789 162.996167,226.332695 163.310336,226.201556 C187.910885,215.932893 216.67176,204.55807 249.285516,192.411744 C342.261707,157.784665 447.602297,123.834456 563.199749,93.0969517 C564.354497,92.7899027 574.948876,89.7762841 594.940727,84.0681205 L599.064384,82.8905641 C647.218947,69.1378298 743.641197,41.5452409 887.840187,0.252831976 Z" id="Path-3" fill="#000000" fill-rule="nonzero"/>
                <path d="M590.642495,97.6377187 C590.642495,114.205719 577.210495,127.637719 560.642495,127.637719 C544.074495,127.637719 530.642495,114.205719 530.642495,97.6377187 C530.642495,81.0697187 544.074495,67.6377187 560.642495,67.6377187 C577.210495,67.6377187 590.642495,81.0697187 590.642495,97.6377187" id="Fill-48" fill="#000000"/>
                <path d="M560.924795,99.5117187 L560.744795,90.5117187 L560.564795,90.5117187 L553.726795,99.2947187 L553.726795,99.5117187 L560.924795,99.5117187 Z M561.105795,109.230719 L560.924795,103.290719 L549.585795,103.111719 L548.902795,99.3667187 L560.564795,84.0327187 L565.243795,84.0327187 L565.604795,99.5117187 L568.304795,99.5117187 L568.663795,103.650719 L565.604795,103.470719 L565.604795,109.230719 L561.105795,109.230719 Z" id="Fill-50" fill="#FFFFFF"/>
                <path d="M101.642495,421.637719 C101.642495,438.205719 88.2104951,451.637719 71.6424951,451.637719 C55.0744951,451.637719 41.6424951,438.205719 41.6424951,421.637719 C41.6424951,405.069719 55.0744951,391.637719 71.6424951,391.637719 C88.2104951,391.637719 101.642495,405.069719 101.642495,421.637719" id="Fill-48" fill="#000000"/>
                <path d="M71.9247951,423.511719 L71.7447951,414.511719 L71.5647951,414.511719 L64.7267951,423.294719 L64.7267951,423.511719 L71.9247951,423.511719 Z M72.1057951,433.230719 L71.9247951,427.290719 L60.5857951,427.111719 L59.9027951,423.366719 L71.5647951,408.032719 L76.2437951,408.032719 L76.6047951,423.511719 L79.3047951,423.511719 L79.6637951,427.650719 L76.6047951,427.470719 L76.6047951,433.230719 L72.1057951,433.230719 Z" id="Fill-50" fill="#FFFFFF"/>
            </g>
        </g>
    </g>
</svg>