<?xml version="1.0" encoding="UTF-8"?>
<svg width="1225px" height="1358px" viewBox="0 0 1225 1358" version="1.1" xmlns="http://www.w3.org/2000/svg" xmlns:xlink="http://www.w3.org/1999/xlink"><script xmlns=""/>
    <title>5-Спортивная</title>
    <g id="Карты" stroke="none" stroke-width="1" fill="none" fill-rule="evenodd">
        <g id="Большевик" transform="translate(-1369.000000, -197.000000)">
            <g id="5-Спортивная" transform="translate(1369.499935, 197.500469)">
                <path d="M6.50426485,1357.00028 C4.59726485,1357.00028 2.70826485,1356.16528 1.42426485,1354.56128 C-0.817735152,1351.75728 -0.363735152,1347.66728 2.44026485,1345.42528 C7.31626485,1341.52228 19.1602648,1332.42128 35.5532648,1319.82428 C119.360265,1255.42328 341.979265,1084.35228 431.017265,994.408275 C455.298265,969.881275 480.595265,945.605275 505.059265,922.129275 C516.138265,911.497275 527.595265,900.503275 538.795265,889.642275 C572.751265,856.711275 610.211265,823.414275 654.016265,802.936275 C666.846265,796.938275 680.383265,793.003275 693.474265,789.198275 C705.134265,785.810275 717.191265,782.305275 728.346265,777.405275 C750.432265,767.705275 773.140265,755.600275 797.766265,740.398275 C803.007265,737.164275 808.336265,733.949275 813.977265,730.547275 C850.932265,708.256275 892.817265,682.991275 914.268265,648.189275 C928.360265,625.325275 932.920265,599.700275 937.748265,572.570275 C940.470265,557.268275 943.287265,541.442275 947.972265,526.213275 C956.800265,497.519275 973.500265,472.600275 989.650265,448.501275 C997.875265,436.228275 1006.37926,423.537275 1013.57226,410.689275 C1024.77826,390.672275 1033.73726,368.896275 1042.40026,347.839275 C1046.64126,337.528275 1051.02826,326.867275 1055.64726,316.476275 C1078.80626,264.382275 1100.71326,232.832275 1126.08026,196.301275 C1139.84426,176.479275 1154.07726,155.980275 1169.96126,130.100275 C1176.31826,119.741275 1184.85426,95.346275 1188.87126,68.761275 C1193.11526,40.667275 1190.88926,19.596275 1182.76426,10.952275 C1180.30526,8.33627504 1180.43326,4.22327504 1183.04826,1.76427504 C1185.66426,-0.695724962 1189.77826,-0.566724962 1192.23726,2.04827504 C1206.37926,17.094275 1205.20226,47.687275 1201.72526,70.703275 C1197.89126,96.081275 1189.38526,123.303275 1181.04126,136.899275 C1164.96426,163.094275 1150.62626,183.745275 1136.75726,203.716275 C1111.76726,239.705275 1090.18526,270.786275 1067.52626,321.757275 C1062.98126,331.980275 1058.63026,342.557275 1054.42226,352.785275 C1045.61326,374.198275 1036.50426,396.340275 1024.91626,417.039275 C1017.46826,430.342275 1008.81626,443.252275 1000.44926,455.738275 C984.822265,479.056275 968.664265,503.168275 960.398265,530.035275 C955.946265,544.504275 953.201265,559.931275 950.546265,574.849275 C945.718265,601.982275 940.725265,630.039275 925.335265,655.010275 C902.230265,692.495275 858.912265,718.625275 820.692265,741.679275 C815.080265,745.063275 809.779265,748.261275 804.594265,751.461275 C779.450265,766.982275 756.218265,779.362275 733.575265,789.308275 C721.638265,794.550275 709.165265,798.176275 697.102265,801.682275 C683.906265,805.518275 671.441265,809.141275 659.522265,814.713275 C617.454265,834.379275 580.987265,866.832275 547.845265,898.974275 C536.621265,909.859275 525.152265,920.865275 514.060265,931.509275 C489.656265,954.928275 464.421265,979.145275 440.255265,1003.55528 C350.598265,1094.12328 127.472265,1265.58428 43.4742648,1330.13328 C27.1402648,1342.68528 15.3382648,1351.75428 10.5612648,1355.57528 C9.36226485,1356.53428 7.92826485,1357.00028 6.50426485,1357.00028" id="Fill-16" fill="#000000"/>
                <path d="M1224.00076,74.000275 C1224.00076,90.568275 1210.56876,104.000275 1194.00076,104.000275 C1177.43276,104.000275 1164.00076,90.568275 1164.00076,74.000275 C1164.00076,57.432275 1177.43276,44.000275 1194.00076,44.000275 C1210.56876,44.000275 1224.00076,57.432275 1224.00076,74.000275" id="Fill-52" fill="#000000"/>
                <path d="M1202.53786,64.715075 L1192.24386,64.211075 L1192.09986,69.395075 L1193.71986,69.395075 C1198.21986,69.395075 1203.79786,71.410075 1203.79786,78.214075 C1203.79786,82.821075 1199.98286,86.313075 1194.40286,86.313075 C1189.54386,86.313075 1185.26086,83.253075 1185.26086,83.253075 L1187.24086,79.653075 C1187.24086,79.653075 1190.29986,82.173075 1194.40286,82.173075 C1197.13986,82.173075 1198.57886,80.049075 1198.57886,78.214075 C1198.57886,74.614075 1195.69986,73.355075 1190.84086,73.355075 C1188.85986,73.355075 1187.77986,73.534075 1187.77986,73.534075 L1187.95986,60.396075 L1202.35786,60.396075 L1202.53786,64.715075 Z" id="Fill-54" fill="#FFFFFF"/>
            </g>
        </g>
    </g>
</svg>