<?xml version="1.0" encoding="UTF-8"?>
<svg width="280px" height="318px" viewBox="0 0 280 318" version="1.1" xmlns="http://www.w3.org/2000/svg" xmlns:xlink="http://www.w3.org/1999/xlink"><script xmlns=""/>
    <title>6-Спортивный рукав</title>
    <g id="Карты" stroke="none" stroke-width="1" fill="none" fill-rule="evenodd">
        <g id="Большевик" transform="translate(-2056.000000, -665.000000)">
            <g id="6-Спортивный-рукав" transform="translate(2056.020960, 665.938763)">
                <path d="M6.50814042,316.94088 C6.22214042,316.94088 5.93214042,316.92088 5.64014042,316.88188 C2.08114042,316.40788 -0.417859577,313.13688 0.0581404235,309.57988 C3.10714042,286.75488 13.7891404,263.26588 31.8101404,239.76588 C43.3381404,224.73288 56.6471404,211.04988 69.5181404,197.81888 C73.7371404,193.48188 78.0991404,188.99788 82.3131404,184.55088 C111.38414,153.88288 137.84814,120.39888 160.97014,85.0298804 C161.91014,83.5908804 162.84714,82.1468804 163.78414,80.7018804 C172.14414,67.8188804 180.78814,54.4978804 192.67714,43.8648804 C204.65314,33.1528804 219.50314,25.7508804 231.43614,19.8008804 C244.37214,13.3528804 257.54714,6.90688043 270.59514,0.642880432 C273.83114,-0.913119568 277.71414,0.452880432 279.26814,3.68888043 C280.82114,6.92488043 279.45814,10.8078804 276.22214,12.3618804 C263.23214,18.5978804 250.11414,25.0158804 237.23614,31.4358804 C222.94614,38.5588804 211.23114,44.7118804 201.34314,53.5538804 C190.74814,63.0298804 182.58514,75.6118804 174.69114,87.7778804 C173.74414,89.2358804 172.79914,90.6928804 171.85114,92.1428804 C148.30414,128.16288 121.35414,162.26188 91.7481404,193.49488 C87.4761404,198.00188 83.0841404,202.51688 78.8361404,206.88288 C66.2281404,219.84488 53.1891404,233.24988 42.1261404,247.67588 C25.5061404,269.35088 15.6871404,290.75688 12.9431404,311.29988 C12.5071404,314.56688 9.71614042,316.94088 6.50814042,316.94088" id="Fill-3" fill="#000000"/>
                <path d="M77.4797404,230.56198 C77.4797404,247.12998 64.0477404,260.56198 47.4797404,260.56198 C30.9117404,260.56198 17.4797404,247.12998 17.4797404,230.56198 C17.4797404,213.99398 30.9117404,200.56198 47.4797404,200.56198 C64.0477404,200.56198 77.4797404,213.99398 77.4797404,230.56198" id="Fill-60" fill="#000000"/>
                <path d="M46.5383404,238.91448 C48.8783404,238.91448 50.6773404,237.11448 50.6773404,234.41448 C50.6773404,231.71548 48.8783404,229.91648 46.3583404,229.91648 C43.6583404,229.91648 41.6793404,231.71548 41.6793404,234.41448 C41.6793404,237.11448 43.6583404,238.91448 46.5383404,238.91448 L46.5383404,238.91448 Z M53.1973404,220.19748 C48.5173404,220.55748 43.1183404,223.43548 42.0383404,228.47648 L42.2193404,228.47648 C42.2193404,228.47648 43.8393404,225.95648 47.0783404,225.95648 C51.7573404,225.95648 55.5363404,228.83648 55.5363404,234.41448 C55.5363404,239.27448 51.7573404,242.87348 46.5383404,242.87348 C40.7783404,242.87348 36.9993404,239.09448 36.9993404,232.07548 C36.9993404,221.81648 43.2983404,216.95748 52.6573404,216.23748 L53.1973404,220.19748 Z" id="Fill-62" fill="#FFFFFF"/>
            </g>
        </g>
    </g>
</svg>