<?xml version="1.0" encoding="UTF-8"?>
<svg width="535px" height="786px" viewBox="0 0 535 786" version="1.1" xmlns="http://www.w3.org/2000/svg" xmlns:xlink="http://www.w3.org/1999/xlink"><script xmlns=""/>
    <title>7-Скикросс</title>
    <g id="Page-1" stroke="none" stroke-width="1" fill="none" fill-rule="evenodd">
        <g id="Artboard" transform="translate(-2094.000000, -198.000000)" fill-rule="nonzero">
            <g id="7-Скикросс" transform="translate(2094.049769, 198.315142)">
                <path d="M14.4392307,785.296902 C11.7442307,785.296902 9.05523074,785.266902 6.35623074,785.205902 C2.76723074,785.125902 -0.0767692564,782.150902 0,778.562902 C0.0832307436,775.023902 2.97623074,772.207902 6.49923074,772.207902 C6.54823074,772.207902 6.59723074,772.208902 6.64723074,772.209902 C9.24023074,772.267902 11.8492307,772.296902 14.4392307,772.296902 C115.821231,772.296902 214.090231,728.115902 285.151231,650.302902 C287.573231,647.650902 291.684231,647.464902 294.334231,649.885902 C296.985231,652.306902 297.171231,656.417902 294.751231,659.067902 C221.230231,739.575902 119.460231,785.296902 14.4392307,785.296902" id="Fill-18" fill="#000000"/>
                <path d="M304.950931,638.187602 C304.242931,638.187602 303.523931,638.071602 302.816931,637.825602 C299.426931,636.647602 297.632931,632.943602 298.810931,629.551602 C304.219931,613.986602 311.688931,587.297602 318.912931,561.489602 C326.190931,535.483602 333.717931,508.592602 339.259931,492.644602 C340.513931,489.037602 341.761931,485.398602 343.015931,481.741602 C355.628931,444.992602 368.669931,406.991602 393.957931,376.995602 C401.634931,367.888602 410.118931,359.254602 418.323931,350.905602 C435.852931,333.067602 452.410931,316.218602 462.599931,294.508602 C472.267931,273.908602 470.682931,254.114602 469.005931,233.158602 C467.793931,218.025602 466.540931,202.377602 469.540931,185.867602 C473.668931,163.157602 484.671931,142.597602 495.310931,122.714602 C507.831931,99.3196017 519.656931,77.2206017 520.969931,52.2196012 C522.043931,31.7416012 511.911931,17.4406012 501.392931,12.3536012 C498.161931,10.7906012 496.808931,6.90360116 498.371931,3.67160116 C499.934931,0.441601158 503.820931,-0.914398842 507.053931,0.650601158 C527.020931,10.3086012 534.950931,33.8526012 533.951931,52.9016012 C532.487931,80.7976017 519.414931,105.225602 506.772931,128.848602 C496.138931,148.720602 486.094931,167.491602 482.331931,188.191602 C479.634931,203.032602 480.764931,217.161602 481.963931,232.121602 C483.702931,253.844602 485.501931,276.309602 474.367931,300.032602 C463.236931,323.749602 445.118931,342.186602 427.596931,360.017602 C419.561931,368.193602 411.253931,376.647602 403.896931,385.374602 C380.176931,413.510602 367.536931,450.342602 355.312931,485.960602 C354.052931,489.633602 352.798931,493.288602 351.538931,496.912602 C346.128931,512.481602 338.656931,539.176602 331.430931,564.993602 C324.154931,590.991602 316.630931,617.875602 311.090931,633.819602 C310.157931,636.503602 307.640931,638.187602 304.950931,638.187602" id="Fill-20" fill="#000000"/>
                <path d="M374.450931,497.185602 C374.450931,513.753602 361.018931,527.185602 344.450931,527.185602 C327.882931,527.185602 314.450931,513.753602 314.450931,497.185602 C314.450931,480.617602 327.882931,467.185602 344.450931,467.185602 C361.018931,467.185602 374.450931,480.617602 374.450931,497.185602" id="Fill-56" fill="#000000"/>
                <polygon id="Fill-58" fill="#FFFFFF" points="337.510531 507.518602 347.948531 487.900602 347.948531 487.720602 336.250531 487.900602 336.070531 483.581602 352.808531 483.401602 353.168531 487.720602 341.650531 509.317602"/>
                <g id="13" transform="translate(159.330231, 210.324858)" fill="#FFFFFF">
                    <polygon id="Path" points="7.98 0.19 0 5.51 1.71 8.55 7.03 6.08 7.22 6.08 6.84 23.37 1.9 23.37 1.9 27.36 16.34 27.36 15.96 23.37 11.78 23.56 12.16 0.76"/>
                    <path d="M23.18,15.2 L25.536,15.2 C29.45,15.2 31.35,17.48 31.35,19.76 C31.35,21.66 29.45,23.75 26.03,23.75 C22.04,23.75 19.19,20.9 19.19,20.9 L16.72,24.32 C16.72,24.32 20.33,28.12 26.03,28.12 C32.87,28.12 36.67,24.13 36.67,19.76 C36.67,14.06 30.476,12.996 30.476,12.996 L30.476,12.73 C30.476,12.73 35.15,11.248 35.15,6.84 C35.15,3.42 32.3,0 26.03,0 C20.71,0 17.86,3.42 17.86,3.42 L20.14,6.612 C20.14,6.612 22.61,4.18 26.03,4.18 C29.26,4.18 30.02,5.89 30.02,7.41 C30.02,9.69 26.98,11.4 23.37,11.4 L23.18,15.2 Z" id="Path"/>
                </g>
            </g>
        </g>
    </g>
</svg>