<?xml version="1.0" encoding="UTF-8"?>
<svg width="639px" height="366px" viewBox="0 0 639 366" version="1.1" xmlns="http://www.w3.org/2000/svg" xmlns:xlink="http://www.w3.org/1999/xlink"><script xmlns=""/>
    <title>8-Расческа</title>
    <g id="Карты" stroke="none" stroke-width="1" fill="none" fill-rule="evenodd">
        <g id="Большевик" transform="translate(-1801.000000, -441.000000)">
            <g id="8-Расческа" transform="translate(1801.500666, 441.500744)">
                <path d="M6.50493403,365 C4.56093403,365 2.63793403,364.132 1.35793403,362.476 C-0.838065972,359.635 -0.315065972,355.553 2.52493403,353.357 C39.142934,325.054 74.567934,304.457 114.010934,288.538 C124.824934,284.174 135.941934,280.146 146.690934,276.251 C169.113934,268.127 192.301934,259.726 213.204934,248.035 C240.496934,232.771 264.745934,211.45 288.195934,190.831 L291.176934,188.212 C336.432934,148.45 385.229934,106.835 440.358934,73.434 C495.501934,40.023 568.516934,15.728 630.907934,10.027 C634.471934,9.688 637.646934,12.333 637.972934,15.908 C638.299934,19.483 635.665934,22.646 632.091934,22.973 C571.541934,28.505 500.654934,52.101 447.094934,84.553 C392.871934,117.405 344.575934,158.6 299.756934,197.978 L296.779934,200.595 C272.820934,221.66 248.045934,243.443 219.550934,259.381 C197.724934,271.588 174.031934,280.172 151.118934,288.474 C140.477934,292.329 129.473934,296.316 118.875934,300.593 C80.568934,316.054 46.123934,336.088 10.475934,363.643 C9.29193403,364.558 7.89293403,365 6.50493403,365" id="Fill-28" fill="#CD0B0B"/>
                <path d="M590.000034,30 C590.000034,46.568 576.568034,60 560.000034,60 C543.432034,60 530.000034,46.568 530.000034,30 C530.000034,13.432 543.432034,0 560.000034,0 C576.568034,0 590.000034,13.432 590.000034,30" id="Fill-72" fill="#CD0B0B"/>
                <path d="M563.658234,23.874 C563.658234,22.255 562.219234,20.815 560.058234,20.815 C557.719234,20.815 556.459234,22.435 556.459234,23.874 C556.459234,25.495 557.539234,27.114 560.058234,27.114 C562.433234,27.114 563.658234,25.495 563.658234,23.874 M565.097234,35.573 C565.097234,33.233 563.299234,31.434 560.058234,31.434 C557.179234,31.434 555.379234,33.413 555.379234,35.753 C555.379234,37.733 556.818234,39.713 560.058234,39.713 C563.299234,39.713 565.097234,37.553 565.097234,35.573 M568.877234,23.155 C568.877234,27.654 565.277234,28.733 565.277234,28.733 L565.277234,28.914 C565.277234,28.914 570.317234,30.354 570.317234,35.573 C570.317234,40.073 565.998234,43.673 560.058234,43.673 C554.119234,43.673 550.160234,40.253 550.160234,35.753 C550.160234,30.534 555.019234,28.914 555.019234,28.914 L555.019234,28.733 C555.019234,28.733 551.240234,27.834 551.240234,23.335 C551.240234,19.735 554.840234,16.676 560.058234,16.676 C565.277234,16.676 568.877234,19.735 568.877234,23.155" id="Fill-66" fill="#FFFFFF"/>
            </g>
        </g>
    </g>
</svg>