<?xml version="1.0" encoding="UTF-8"?>
<svg width="586px" height="294px" viewBox="0 0 586 294" version="1.1" xmlns="http://www.w3.org/2000/svg" xmlns:xlink="http://www.w3.org/1999/xlink"><script xmlns=""/>
    <title>9-Семядисятка</title>
    <g id="Карты" stroke="none" stroke-width="1" fill="none" fill-rule="evenodd">
        <g id="Большевик" transform="translate(-1804.000000, -550.000000)">
            <g id="9-Семядисятка" transform="translate(1804.500785, 550.500428)">
                <path d="M6.50091466,293.000316 C4.76391466,293.000316 3.02991466,292.308316 1.74991466,290.937316 C-0.700085337,288.313316 -0.561085337,284.200316 2.06391466,281.750316 C54.4869147,232.784316 136.057915,203.799316 180.014915,190.880316 C189.910915,187.972316 200.889915,184.903316 212.512915,181.654316 C269.316915,165.776316 347.114915,144.030316 398.038915,111.998316 C401.038915,110.111316 408.631915,105.607316 419.141915,99.375316 C459.142915,75.650316 542.378915,26.285316 574.516915,1.36331599 C577.354915,-0.836684008 581.437915,-0.318684008 583.636915,2.51731599 C585.836915,5.35431599 585.319915,9.43731599 582.482915,11.637316 C549.704915,37.054316 465.999915,86.698316 425.772915,110.556316 C415.348915,116.738316 407.815915,121.206316 404.960915,123.002316 C352.436915,156.042316 273.585915,178.081316 216.011915,194.174316 C204.431915,197.411316 193.492915,200.469316 183.680915,203.353316 C140.826915,215.947316 61.4009147,244.114316 10.9369147,291.250316 C9.68391466,292.421316 8.09091466,293.000316 6.50091466,293.000316" id="Fill-30" fill="#CD0B0B"/>
                <path d="M375.999915,141.000316 C375.999915,157.568316 362.567915,171.000316 345.999915,171.000316 C329.431915,171.000316 315.999915,157.568316 315.999915,141.000316 C315.999915,124.432316 329.431915,111.000316 345.999915,111.000316 C362.567915,111.000316 375.999915,124.432316 375.999915,141.000316" id="Fill-78" fill="#CD0B0B"/>
                <path d="M345.978415,131.636016 C343.638415,131.636016 341.839415,133.435016 341.839415,136.134016 C341.839415,138.834016 343.638415,140.634016 346.158415,140.634016 C348.858415,140.634016 350.837415,138.834016 350.837415,136.134016 C350.837415,133.435016 348.858415,131.636016 345.978415,131.636016 L345.978415,131.636016 Z M339.319415,150.353016 C343.999415,149.993016 349.398415,147.114016 350.478415,142.074016 L350.298415,142.074016 C350.298415,142.074016 348.677415,144.593016 345.438415,144.593016 C340.759415,144.593016 336.980415,141.714016 336.980415,136.134016 C336.980415,131.275016 340.759415,127.676016 345.978415,127.676016 C351.738415,127.676016 355.517415,131.455016 355.517415,138.474016 C355.517415,148.734016 349.218415,153.593016 339.859415,154.312016 L339.319415,150.353016 Z" id="Fill-70" fill="#FFFFFF"/>
            </g>
        </g>
    </g>
</svg>