<?xml version="1.0" encoding="UTF-8"?>
<svg width="174px" height="1559px" viewBox="0 0 174 1559" version="1.1" xmlns="http://www.w3.org/2000/svg" xmlns:xlink="http://www.w3.org/1999/xlink"><script xmlns=""/>
    <title>1-Северная 1</title>
    <defs>
        <path d="M118.949426,1546.81811 C120.563364,1546.33837 121.76634,1545.94372 122.558355,1545.63418 C140.385846,1538.66769 153.034727,1516.39967 154.785399,1488.90678 C157.272138,1449.82888 145.309045,1410.94506 133.740131,1373.34232 C128.458954,1356.17648 122.997782,1338.42541 118.9826,1320.8835 C89.4403881,1191.83354 85.525761,1065.8475 81.3818672,932.464603 C80.8811006,916.347562 80.3632396,899.681487 79.8031453,883.242667 C78.5472066,846.456434 77.6472345,808.755146 76.7784347,772.293708 C74.1388518,661.698704 71.41078,547.337896 58.4250377,437.29997 C42.1290071,299.208054 23.7826491,151.575429 0.0877419483,7.6000084 C-0.498496842,4.03732566 1.91483609,0.674748447 5.47651327,0.0885096567 C9.04020156,-0.5007458 12.4007677,1.91459824 12.9870065,5.47627542 C36.7241469,149.711129 55.0926272,297.522743 71.4067578,435.767503 C84.4638945,546.414796 87.2000107,661.086321 89.8466325,771.981986 C90.7154323,808.409235 91.6143988,846.07734 92.8673208,882.797206 C93.4284208,899.256137 93.9472873,915.932267 94.4480539,932.058359 C98.5718366,1064.78765 102.466353,1190.15627 131.723992,1317.96739 C135.633591,1335.04071 141.023368,1352.55749 146.234156,1369.49808 C158.149988,1408.22604 170.470052,1448.27228 167.830469,1489.73737 C165.727853,1522.78092 150.203083,1548.86603 127.317648,1557.80944 C127.032357,1557.92093 125.477884,1558.25592 122.654229,1558.81443 L118.949426,1546.81811 Z" id="path-1"/>
    </defs>
    <g id="Карты" stroke="none" stroke-width="1" fill="none" fill-rule="evenodd">
        <g id="Север" transform="translate(-1949.000000, -247.000000)">
            <g id="1-Северная-1" transform="translate(1949.936642, 246.999979)">
                <g id="Fill-2" transform="translate(3.883196, 0.000000)">
                    <mask id="mask-2" fill="white">
                        <use xlink:href="#path-1"/>
                    </mask>
                    <use id="Fill-1" fill="#000000" xlink:href="#path-1"/>
                </g>
                <path d="M60.3333232,148.629755 C60.3333232,165.289796 46.8267033,178.796416 30.1666616,178.796416 C13.50662,178.796416 0,165.289796 0,148.629755 C0,131.968708 13.50662,118.463093 30.1666616,118.463093 C46.8267033,118.463093 60.3333232,131.968708 60.3333232,148.629755" id="Fill-8" fill="#000000"/>
                <polygon id="Fill-10" fill="#FFFFFF" points="33.9659515 134.949174 33.6049571 156.666153 37.5859509 156.485153 37.9479509 160.286153 24.1929587 160.286153 24.1929587 156.485153 28.8989579 156.485153 29.2609579 140.016167 29.0799579 140.016167 24.0129643 142.369167 22.382959 139.474173 29.9849578 134.406174"/>
            </g>
        </g>
    </g>
</svg>