<?xml version="1.0" encoding="UTF-8"?>
<svg width="328px" height="1553px" viewBox="0 0 328 1553" version="1.1" xmlns="http://www.w3.org/2000/svg" xmlns:xlink="http://www.w3.org/1999/xlink"><script xmlns=""/>
    <title>2-Северная2</title>
    <defs>
        <path d="M256.36387,1528.99605 C217.664066,1492.05798 182.208183,1448.03175 150.982671,1398.13911 C121.692854,1351.34056 96.0391251,1299.27894 74.7344231,1243.40123 C34.8178965,1138.71085 11.0948338,1023.82715 6.12638463,911.16975 C-0.813958647,753.76916 -5.51191341,599.278647 12.9913113,439.833762 C21.4329487,367.09088 32.0204414,289.30011 52.1576936,213.302245 C73.9360122,131.114181 104.119768,62.280898 144.436506,2.86665235 C146.465717,-0.120852701 150.532183,-0.898147016 153.51466,1.12804709 C156.502165,3.15524675 157.280465,7.21970162 155.254271,10.2072067 C115.778177,68.3816025 86.187699,135.909675 64.7945081,216.650744 C44.8684226,291.851204 34.3623799,369.08188 25.976048,441.340084 C7.58443995,599.82768 12.2693225,753.743015 19.1855324,910.594572 C24.0926427,1021.87034 47.5250999,1135.34324 86.9489044,1238.7445 C107.95194,1293.82882 133.223558,1345.12422 162.062886,1391.20379 C192.71322,1440.17434 227.476275,1483.35289 265.389736,1519.5388 C282.785844,1536.14253 300.894891,1541.95263 316.378433,1535.9012 C318.050757,1535.2477 320.451402,1533.97386 323.580366,1532.07967 L327.884074,1544.82737 C324.937848,1546.38719 322.689065,1547.47022 321.137726,1548.07647 C316.842999,1549.75474 310.930334,1551.30933 303.775807,1551.30933 C291.163126,1551.30933 274.68509,1546.48266 256.36387,1528.99605 Z" id="path-1"/>
    </defs>
    <g id="Карты" stroke="none" stroke-width="1" fill="none" fill-rule="evenodd">
        <g id="Север" transform="translate(-1760.000000, -256.000000)">
            <g id="2-Северная2" transform="translate(1759.999760, 256.732957)">
                <g id="Fill-2">
                    <mask id="mask-2" fill="white">
                        <use xlink:href="#path-1"/>
                    </mask>
                    <use id="Fill-1" fill="#000000" xlink:href="#path-1"/>
                </g>
                <path d="M211.053545,1432.04101 C211.053545,1448.70105 197.546925,1462.20767 180.886883,1462.20767 C164.226841,1462.20767 150.720222,1448.70105 150.720222,1432.04101 C150.720222,1415.38096 164.226841,1401.87434 180.886883,1401.87434 C197.546925,1401.87434 211.053545,1415.38096 211.053545,1432.04101" id="Fill-4" fill="#000000"/>
                <path d="M178.331767,1439.35391 L178.331767,1439.53491 L190.095759,1439.35391 L189.552759,1443.6969 L172.359773,1443.6969 L171.816774,1439.35391 C171.816774,1439.35391 184.123766,1430.48591 184.123766,1424.87592 C184.123766,1422.88492 182.674761,1421.97992 180.865766,1421.97992 C176.703773,1421.97992 173.807773,1425.23691 173.807773,1425.23691 L171.454774,1422.15992 C171.454774,1422.15992 175.617773,1417.63592 181.155366,1417.63592 C186.65676,1417.63592 189.371759,1420.53192 189.371759,1424.87592 C189.371759,1432.11491 178.331767,1439.35391 178.331767,1439.35391" id="Fill-6" fill="#FFFFFF"/>
            </g>
        </g>
    </g>
</svg>